<?xml version="1.0" encoding="UTF-8" standalone="no"?>
<svg
   viewBox="12 4 26 40"
   version="1.1"
   id="svg1"
   sodipodi:docname="battery-icon-charging.svg"
   inkscape:version="1.4.2 (ebf0e940d0, 2025-05-08)"
   xmlns:inkscape="http://www.inkscape.org/namespaces/inkscape"
   xmlns:sodipodi="http://sodipodi.sourceforge.net/DTD/sodipodi-0.dtd"
   xmlns="http://www.w3.org/2000/svg"
   xmlns:svg="http://www.w3.org/2000/svg">
  <defs
     id="defs1" />
  <sodipodi:namedview
     id="namedview1"
     pagecolor="#505050"
     bordercolor="#eeeeee"
     borderopacity="1"
     inkscape:showpageshadow="0"
     inkscape:pageopacity="0"
     inkscape:pagecheckerboard="0"
     inkscape:deskcolor="#505050"
     inkscape:zoom="20"
     inkscape:cx="13"
     inkscape:cy="20"
     inkscape:window-width="1920"
     inkscape:window-height="1011"
     inkscape:window-x="0"
     inkscape:window-y="0"
     inkscape:window-maximized="1"
     inkscape:current-layer="svg1" />
  <path
     d="M 12 44 L 12 10.957 L 18.934 10.957 L 18.934 4 L 31.066 4 L 31.066 10.957 L 38 10.957 L 38 44 L 12 44 Z M 26.319 25.63 L 29.341 25.63 C 29.702 25.63 30.027 25.884 30.129 26.263 C 30.279 26.645 30.183 27.077 29.913 27.345 L 22.973 34.193 C 22.667 34.492 22.22 34.517 21.892 34.248 C 21.565 33.979 21.445 33.49 21.605 33.071 L 23.69 27.587 L 20.643 27.587 C 20.306 27.587 19.983 27.333 19.856 26.954 C 19.728 26.572 19.824 26.141 20.096 25.872 L 27.034 19.024 C 27.341 18.723 27.788 18.701 28.116 18.97 C 28.444 19.238 28.563 19.726 28.403 20.146 L 26.319 25.63 Z"
     fill-rule="evenodd"
     fill="currentColor"
     transform="matrix(1, 0, 0, 1, -8.881784197001252e-16, 0)"
     id="path1"
     style="fill:#ffffff" />
</svg>
