<?xml version="1.0" encoding="UTF-8" standalone="no"?>
<svg
   id="Ebene_1"
   enable-background="new 0 0 566.924 121.752"
   version="1.1"
   y="0px"
   x="0px"
   viewBox="0 0 264 57"
   sodipodi:docname="atari8bit.svg"
   inkscape:version="1.4.2 (ebf0e940d0, 2025-05-08)"
   xmlns:inkscape="http://www.inkscape.org/namespaces/inkscape"
   xmlns:sodipodi="http://sodipodi.sourceforge.net/DTD/sodipodi-0.dtd"
   xmlns="http://www.w3.org/2000/svg"
   xmlns:svg="http://www.w3.org/2000/svg">
  <defs
     id="defs1" />
  <sodipodi:namedview
     id="namedview1"
     pagecolor="#ffffff"
     bordercolor="#000000"
     borderopacity="0.25"
     inkscape:showpageshadow="2"
     inkscape:pageopacity="0.0"
     inkscape:pagecheckerboard="0"
     inkscape:deskcolor="#d1d1d1"
     inkscape:zoom="4.7765152"
     inkscape:cx="134.61697"
     inkscape:cy="61.969865"
     inkscape:window-width="1920"
     inkscape:window-height="1011"
     inkscape:window-x="0"
     inkscape:window-y="0"
     inkscape:window-maximized="1"
     inkscape:current-layer="Ebene_1" />
  <g
     id="g1"
     style="fill:#ffffff">
    <path
       id="path6"
       d="m 96.39872,2.4734534 c 2.19956,-2.82907868 6.75268,-3.31253444 9.45164,-0.9390453 1.10352,0.9341798 1.87704,2.2235426 2.27216,3.6115428 4.99708,17.2832121 10.01572,34.5580191 15.00532,51.8447691 -2.94844,0.0031 -5.89864,-0.0053 -8.84708,0.0031 -1.39084,-4.765556 -2.74868,-9.539073 -4.12192,-14.309052 -5.70284,-0.0115 -11.40216,-0.0027 -17.10412,-0.0053 -1.39612,4.767325 -2.77464,9.539958 -4.14524,14.316129 -2.9326,-0.0097 -5.86564,-0.0018 -8.79868,-0.0049 4.74716,-16.487478 9.4996,-32.974071 14.26964,-49.4575681 0.56804,-1.7254903 0.78232,-3.6526785 2.01608,-5.0614677 m 5.20652,10.5913528 c -2.09088,7.159833 -4.13952,14.333379 -6.21852,21.497194 4.14436,0.0199 8.28696,0.0075 12.42956,0.0075 -2.0724,-7.16868 -4.13512,-14.336476 -6.21192,-21.504713 z"
       style="fill:#ffffff;stroke-width:0.441158" />
    <path
       id="path8"
       d="m 158.51924,2.8454446 c 1.53692,-2.24079316 4.5078,-3.32801572 7.12272,-2.63578492 2.39448,0.55422696 4.22576,2.62826542 4.85892,4.96371502 4.99136,17.2708263 10.00076,34.5354613 14.99168,51.8076143 -2.95328,0.023 -5.90436,0 -8.8572,0.01194 -1.37324,-4.769537 -2.73108,-9.543939 -4.114,-14.313475 -5.69272,0.0027 -11.38412,-0.0097 -17.07684,0.0044 -1.36048,4.772633 -2.76364,9.53465 -4.12368,14.307283 -2.9304,0.0031 -5.8586,-0.0027 -8.789,0.0031 4.74408,-16.578154 9.54448,-33.142153 14.32772,-49.7105756 0.49808,-1.4994648 0.69388,-3.1484337 1.65748,-4.4413351 m -0.7172,31.7240747 c 4.12764,0.0053 8.25264,0.0027 12.3794,0.0027 -2.05304,-7.183719 -4.13952,-14.357265 -6.18596,-21.540541 -2.06272,7.18018 -4.14436,14.353726 -6.19344,21.537887 z"
       style="fill:#ffffff;stroke-width:0.441158" />
    <path
       id="path10"
       d="m 116.5296,0.12296496 h 32.00032 V 8.7986294 c -3.92832,0.0031 -7.85356,-0.00442 -11.77968,0.0031 0,16.0624086 0.003,32.1257016 -0.002,48.1885526 h -8.43876 c 0,-16.061524 -0.003,-32.124817 0.002,-48.1885526 -3.92832,-0.00752 -7.854,0 -11.78188,-0.0031 0,-2.894542 -0.005,-5.7842186 0,-8.67787604 z"
       style="fill:#ffffff;stroke-width:0.441158" />
    <path
       id="path12"
       d="m 194.8738,0.47593632 c 0.81048,-0.28175784 1.67552,-0.37774128 2.53176,-0.35783688 3.36336,0.0119426 6.72672,0.003096 10.08964,0.004866 5.66412,0.10527216 11.0704,3.63763966 13.52164,8.76280156 1.69752,3.328015 1.8722,7.198315 1.44452,10.849224 -0.29524,3.821645 -1.8898,7.643732 -4.81228,10.177341 -1.54308,1.38225 -3.46588,2.220447 -5.11852,3.452308 -0.90728,0.693558 -0.95348,2.043518 -0.484,3.009103 4.4638,6.927616 9.10448,13.747305 13.66244,20.61565 -3.33344,0.0058 -6.66688,-0.0075 -10.00032,0.0058 -4.36348,-6.588357 -8.68164,-13.209887 -13.02752,-19.807975 -1.27732,-1.87809 -1.62492,-4.364813 -0.85932,-6.507854 0.59664,-1.644103 2.02576,-2.846329 3.61724,-3.466904 3.03864,-1.165513 6.03416,-2.995833 7.71716,-5.879317 1.27996,-2.166041 1.21352,-4.838539 0.638,-7.208932 -0.6754,-3.077662 -3.65772,-5.4984792 -6.80988,-5.3927647 -2.1802,0.014597 -4.35864,-0.00973 -6.53532,0.00973 -0.9856,-0.023001 -1.91268,0.8381964 -1.89992,1.8418197 -0.0101,15.470142 0.005,30.941169 -0.005,46.410426 -2.83448,-0.0058 -5.66632,0 -8.5008,-0.0031 -0.005,-16.65379 0.005,-33.308908 -0.005,-49.9631397 0,-2.9162157 2.06272,-5.6630229 4.81932,-6.5489899 z"
       style="fill:#ffffff;stroke-width:0.441158" />
    <path
       id="path14"
       d="m 230.16268,0.12296496 h 8.9452 c -0.003,18.95739304 0.006,37.91168904 -0.005,56.86775504 -2.97836,-0.0084 -5.95892,0 -8.93992,-0.0027 V 0.12473424 Z"
       style="fill:#ffffff;stroke-width:0.441158" />
    <path
       id="path18"
       d="m 25.22696,0.0066348 c 1.4322,-0.0044232 2.86528,0 4.29748,-0.00353856 0.0062,3.38640196 0,6.77324616 0.0022,10.15876376 0.01496,2.826867 -0.06468,5.653292 -0.18084,8.476178 -0.19184,4.07819 -0.44572,8.1639 -1.1176,12.195205 -0.46156,2.779096 -1.41768,5.459555 -2.60436,8.004222 -1.93512,4.100749 -4.97596,7.570307 -8.39432,10.488734 -3.05844,2.70523 -6.70824,4.674881 -10.54724,6.008033 C 4.51044,56.085734 2.27568,56.665615 0,56.988066 c 0.0022,-2.839694 0.0022,-5.6816 0,-8.521294 2.73944,-0.413127 5.37284,-1.390654 7.81924,-2.682229 2.90224,-1.542812 5.5154,-3.618177 7.71408,-6.063765 2.27128,-2.525647 4.081,-5.449382 5.45512,-8.554026 1.61744,-3.569523 2.48336,-7.424784 3.07164,-11.286237 0.73788,-4.906656 1.045,-9.871698 1.1594,-14.8318745 0.01628,-1.6772775 0.0022,-3.3589781 0.0075,-5.03846714 z"
       style="fill:#ffffff;stroke-width:0.441158" />
    <path
       id="path20"
       d="m 31.25408,0.01238496 c 2.63648,-0.01725048 5.27516,-0.00265392 7.91252,-0.00751944 8.8e-4,18.99366348 8.8e-4,37.98865348 0,56.98497048 -2.6312,0.0058 -5.26328,-0.01238 -7.89448,0.01017 -0.03344,-6.056688 -0.0048,-12.114702 -0.01408,-18.170948 -0.0031,-12.938744 0.0053,-25.876162 -0.004,-38.81446444 z"
       style="fill:#ffffff;stroke-width:0.441158" />
    <path
       id="path22"
       d="m 40.92704,0.00486552 c 1.42472,-8.8464e-4 2.849,-0.00353856 4.27284,8.8464e-4 -0.0462,5.79129574 0.15004,11.59364984 0.83688,17.34734784 0.56188,4.469202 1.35476,8.971134 3.12488,13.135135 1.67904,4.028208 4.0986,7.772889 7.25164,10.790839 3.01092,2.88658 6.65984,5.105699 10.62424,6.38312 1.10616,0.355625 2.2374,0.634286 3.38712,0.80281 -0.0013,2.83881 -0.0026,5.67762 0,8.515545 -2.2594,-0.307855 -4.4748,-0.893044 -6.6308,-1.629949 C 61.226,54.452688 58.74264,53.289829 56.46168,51.798326 54.79628,50.721277 53.28224,49.432799 51.82716,48.08903 49.4296,45.866372 47.28328,43.339398 45.67156,40.479357 44.41052,38.251834 43.49092,35.844728 42.77064,33.38941 42.1102,30.921707 41.8286,28.372616 41.57252,25.836354 41.07664,20.354682 40.8914,14.846028 40.92704,9.34401 c 0.0026,-3.1126058 0.0018,-6.226981 0.0026,-9.33914448 z"
       style="fill:#ffffff;stroke-width:0.441158" />
    <path
       id="path24"
       d="m 25.22696,0.0066348 c -0.0048,1.6799314 0.0092,3.3611897 -0.0075,5.0420057 -0.1144,4.9601765 -0.42108,9.9247765 -1.1594,14.8318745 -0.58828,3.861453 -1.45464,7.716714 -3.07164,11.286237 -1.37412,3.105971 -3.18384,6.028821 -5.45512,8.554026 -2.19868,2.446915 -4.81184,4.520953 -7.71408,6.063765 -2.4464,1.292902 -5.0798,2.269544 -7.81924,2.682229 0.0022,2.839694 0.0022,5.6816 0,8.521294 2.27568,-0.322451 4.51044,-0.902332 6.68228,-1.653834 3.839,-1.333152 7.4888,-3.302803 10.54724,-6.008033 3.41836,-2.918427 6.4592,-6.387985 8.39432,-10.488734 1.18624,-2.544667 2.1428,-5.225126 2.60436,-8.004222 0.67188,-4.030863 0.9262,-8.117015 1.1176,-12.195205 0.11616,-2.822886 0.1958,-5.649311 0.18084,-8.476178 C 29.52444,6.7732462 29.5306,3.3864019 29.52444,0 28.0918,0.00353856 26.65916,-0.00132696 25.22696,0.00353856"
       style="fill:#ffffff;stroke-width:0.441158" />
    <path
       id="path26"
       d="m 31.25408,0.01238496 c 0.0092,12.93962904 8.8e-4,25.87572004 0.0044,38.81534904 0.0097,6.056688 -0.01936,12.114703 0.01408,18.170506 2.6312,-0.02388 5.26284,-0.0053 7.89448,-0.0097 8.8e-4,-18.993663 8.8e-4,-37.988211 0,-56.98497044 -2.6378,0.0066348 -5.27648,-0.00840408 -7.91296,0.00928872"
       style="fill:#ffffff;stroke-width:0.441158" />
    <path
       id="path28"
       d="m 40.92704,0.00486552 c -8.8e-4,3.11216348 0,6.22653868 0,9.33870218 -0.03564,5.5024603 0.1496,11.0106713 0.64548,16.4923433 0.25608,2.536263 0.53768,5.084911 1.19812,7.553057 0.72028,2.454876 1.63988,4.862423 2.90092,7.089504 1.61128,2.860042 3.75804,5.387458 6.1556,7.610116 1.45508,1.343768 2.96912,2.632246 4.63452,3.708411 2.28096,1.492388 4.76432,2.655247 7.33216,3.553157 2.156,0.736905 4.3714,1.322094 6.6308,1.629949 -0.0026,-2.838368 -0.0013,-5.676735 0,-8.515545 C 69.27448,48.296478 68.14368,48.017375 67.03752,47.661749 63.07312,46.383887 59.42376,44.16521 56.41328,41.278629 53.26024,38.26068 50.84068,34.516441 49.16164,30.487791 47.39152,26.32379 46.59864,21.821857 46.03676,17.351771 45.34992,11.598957 45.15368,5.7966036 45.19988,0.00530784 43.76812,0.0044232 42.3434,0.00707712 40.91868,0.00840408"
       style="fill:#ffffff;stroke-width:0.441158" />
    <g
       fill="#ffffff"
       id="g28"
       style="fill:#ffffff"
       transform="matrix(0.44866447,0,0,0.46323083,6.6050595,-1.9057537)">
      <path
         d="m 542.64,27.9 c -2.4,3.31 -6.41,2.32 -6.29,-1.96 a 0.99,0.98 -0.8 0 0 -1.04,-1.01 c -2.68,0.16 -7.38,0.93 -9.56,-0.49 -1.55,-1 -2.76,-2.83 -1.85,-4.73 1.74,-3.65 8.08,-2.77 11.38,-2.69 a 0.75,0.74 -3.5 0 0 0.76,-0.85 q -0.67,-4.56 3.58,-5.3 0.57,-0.1 1.04,0.24 2.7,1.97 2.33,5.27 -0.07,0.64 0.57,0.64 l 18.34,-0.06 a 1.86,1.85 90 0 0 1.85,-1.86 v -5.02 q 0,-0.42 0.33,-0.69 c 6.46,-5.27 10.34,10.34 3.51,14.38 q -2.15,1.27 -7.43,1.34 -8.26,0.11 -16.54,-0.23 -0.58,-0.03 -0.6,0.56 l -0.03,1.43 q -0.02,0.57 -0.35,1.03 z"
         id="path18-2"
         style="fill:#ffffff" />
      <ellipse
         cx="0"
         cy="0"
         transform="rotate(-2.2,1252.1462,-13712.35)"
         rx="4.5500002"
         ry="4.0700002"
         id="ellipse20"
         style="fill:#ffffff" />
      <rect
         x="-17.860001"
         y="-3.95"
         transform="rotate(-0.1,22037.482,-316883.89)"
         width="35.720001"
         height="7.9000001"
         rx="3.8599999"
         id="rect22"
         style="fill:#ffffff" />
      <path
         d="m 566.81,70.73 c 5.33,0.2 5.41,7.23 0.88,7.24 Q 547.34,78.04 527,77.98 c -5.31,-0.01 -6.06,-6.97 -0.69,-7.42 q 3.42,-0.28 12.95,0.09 0.63,0.02 0.21,-0.44 -3.64,-3.98 -3.89,-9 c -0.72,-14.37 18.81,-15.61 27.94,-11.25 8.72,4.16 10.09,13.12 3.05,20.16 a 0.36,0.36 0 0 0 0.24,0.61 z m -2.7443,-7.4645 a 10.94,7.08 1.6 0 0 -10.738,-7.3827 10.94,7.08 1.6 0 0 -11.1334,6.7717 10.94,7.08 1.6 0 0 10.738,7.3827 10.94,7.08 1.6 0 0 11.1334,-6.7717 z"
         id="path24-9"
         style="fill:#ffffff" />
      <path
         d="m 544.87,100.54 q 3.23,-5.05 9.43,-5.91 c 19.87,-2.76 23.3,26.04 4.49,29.31 q -7.72,1.35 -13.36,-5.78 -0.34,-0.43 -0.72,-0.03 c -7.58,7.95 -19.36,4.66 -21.76,-5.86 -1.53,-6.73 2,-13.98 8.66,-16.02 4.12,-1.27 10.62,-0.34 12.7,4.25 q 0.24,0.53 0.56,0.04 z m 19.5097,8.5901 a 8.01,6.81 -0.5 0 0 -8.0691,-6.7398 8.01,6.81 -0.5 0 0 -7.9503,6.8796 8.01,6.81 -0.5 0 0 8.0691,6.7398 8.01,6.81 -0.5 0 0 7.9503,-6.8796 z m -22.5643,-0.0477 a 6.19,5.63 -2.2 0 0 -6.4015,-5.3883 6.19,5.63 -2.2 0 0 -5.9693,5.8635 6.19,5.63 -2.2 0 0 6.4015,5.3883 6.19,5.63 -2.2 0 0 5.9693,-5.8635 z"
         id="path26-1"
         style="fill:#ffffff" />
    </g>
  </g>
</svg>
