<?xml version="1.0" encoding="UTF-8" standalone="no"?>
<svg
   width="2456.3743"
   height="1215.0741"
   viewBox="0 0 189.39235 93.685129"
   version="1.1"
   id="svg2"
   sodipodi:docname="doom3.svg"
   inkscape:version="1.3.2 (091e20ef0f, 2023-11-25, custom)"
   xmlns:inkscape="http://www.inkscape.org/namespaces/inkscape"
   xmlns:sodipodi="http://sodipodi.sourceforge.net/DTD/sodipodi-0.dtd"
   xmlns="http://www.w3.org/2000/svg"
   xmlns:svg="http://www.w3.org/2000/svg">
  <defs
     id="defs2" />
  <sodipodi:namedview
     id="namedview2"
     pagecolor="#ffffff"
     bordercolor="#000000"
     borderopacity="0.25"
     inkscape:showpageshadow="2"
     inkscape:pageopacity="0.0"
     inkscape:pagecheckerboard="0"
     inkscape:deskcolor="#d1d1d1"
     inkscape:zoom="0.3244"
     inkscape:cx="1229.963"
     inkscape:cy="725.95561"
     inkscape:window-width="1920"
     inkscape:window-height="1011"
     inkscape:window-x="0"
     inkscape:window-y="0"
     inkscape:window-maximized="1"
     inkscape:current-layer="g2" />
  <g
     fill-rule="evenodd"
     clip-rule="evenodd"
     id="g2"
     transform="translate(-1.485518,-97.356858)">
    <path
       fill="#fff"
       d="m 164.52899,110.38699 h 19.67474 l 1.05633,6.40274 -6.26031,3.10241 8.29291,6.20384 0.24376,4.48869 h -28.29144 v -4.42174 h 15.52828 l -7.15534,-6.73354 10.56927,-5.14837 h -16.66586 l -0.24376,-1.78209 z m -73.417293,8.84547 h 10.244233 v 30.03167 l -10.244233,6.73354 z m -75.204947,0 h 10.488016 v 30.16459 L 15.90675,156.12961 Z M 4.768689,110.45297 c 0.89381,0.79259 0.89381,1.65015 0.89381,2.63965 v 63.29965 c 0,0.39481 0.08125,2.37579 -0.406277,3.89401 L 37.370314,160.2865 c -0.731297,-0.5937 -1.300086,-1.12243 -1.382554,-2.30982 v -44.55323 l -4.633986,-2.97048 z m 127.075011,0 5.28644,15.97383 6.09659,-15.97383 h 13.25313 c -1.13879,0.85855 -1.13879,1.45226 -1.13879,2.90451 v 63.16673 c 0,3.23433 0,5.47819 0.97628,7.26028 -3.82022,-2.44176 -7.64164,-4.94948 -11.54554,-7.4582 0.81254,-0.32984 1.05631,-0.85757 1.05631,-2.04596 v -36.1705 l -9.18551,27.19409 -9.43169,-36.43536 v 36.63326 c -3.25265,-2.11291 -6.50407,-4.2898 -9.75672,-6.4037 0.89502,-0.59371 0.89502,-1.58321 0.89502,-2.70564 v -42.57323 c 0,-2.24386 -0.65126,-3.3653 -1.54627,-3.3653 h 15.04075 z m -79.512681,8.77949 h 11.219314 v 37.22698 l -11.219314,-6.99642 z m -6.504074,-8.77949 -4.552732,2.63965 v 43.49777 l 16.260791,10.62657 16.017025,-10.49367 v -43.63067 l -4.065196,-2.63965 z m 38.293143,0 -3.007664,2.50772 v 43.76163 l 15.611963,9.90095 15.609523,-10.16482 v -43.10097 l -3.82023,-2.90451 z"
       id="path2"
       style="fill:#ffffff;stroke-width:1.09273" />
  </g>
</svg>
