<?xml version="1.0" encoding="UTF-8" standalone="no"?>
<svg
   version="1.1"
   viewBox="0.00 0.00 700.00 394.00"
   id="svg113"
   sodipodi:docname="fallout2-ce.svg"
   inkscape:version="1.3.2 (091e20ef0f, 2023-11-25, custom)"
   xmlns:inkscape="http://www.inkscape.org/namespaces/inkscape"
   xmlns:sodipodi="http://sodipodi.sourceforge.net/DTD/sodipodi-0.dtd"
   xmlns="http://www.w3.org/2000/svg"
   xmlns:svg="http://www.w3.org/2000/svg">
  <defs
     id="defs113" />
  <sodipodi:namedview
     id="namedview113"
     pagecolor="#ffffff"
     bordercolor="#000000"
     borderopacity="0.25"
     inkscape:showpageshadow="2"
     inkscape:pageopacity="0.0"
     inkscape:pagecheckerboard="0"
     inkscape:deskcolor="#d1d1d1"
     inkscape:zoom="1.05"
     inkscape:cx="350"
     inkscape:cy="196.66667"
     inkscape:window-width="1920"
     inkscape:window-height="1011"
     inkscape:window-x="0"
     inkscape:window-y="0"
     inkscape:window-maximized="1"
     inkscape:current-layer="svg113" />
  <g
     fill="#8f5615"
     id="g113"
     style="fill:#ffffff;fill-opacity:1"
     transform="matrix(0.87244065,0,0,0.87244065,51.520004,97.23053)">
    <path
       d="m 5.5655202,293.35953 q -14.6246668,-0.95 -29.2265712,-1.81 -6.601017,-0.39 -14.590523,-4.68 -1.9234,-1.04 -3.141174,-2.63 c -1.115344,-1.45 -2.868028,-2.57 -3.676083,-4.17 -1.138107,-2.24 -3.072887,-4.67 -3.380176,-7.09 q -0.364194,-2.89 -0.773912,-6.01 -0.295908,-2.25 0.375575,-5.05 2.242069,-9.39 4.256517,-15.84 28.850996,-92.86 61.264265,-196.489999 c 0.682864,-2.18 2.378642,-4.13 3.721608,-6.12 1.71854,-2.54 4.871095,-4.48 7.272499,-6.54 2.936315,-2.51 6.532731,-4.16 9.992574,-5.99 q 16.457018,-8.7 36.203163,-7.75 0.591815,0.03 1.138106,-0.16 0.921866,-0.31 1.775446,0.13 0.569053,0.3 1.160868,0.02 1.115345,-0.55 2.24207,-0.02 0.591815,0.29 1.195012,0 1.092582,-0.52 2.207926,0 0.591815,0.28 1.206393,0 1.058438,-0.48 2.116877,-0.05 0.63734,0.25 1.286061,0.04 l 0.500766,-0.15 q 0.375575,-0.12 0.762532,-0.05 1.752683,0.34 3.448462,0.22 1.5023,-0.11 3.061506,-0.12 28.532333,-0.05 57.064653,-0.2 1.13811,-0.01 2.27622,-0.01 86.63265,-0.19 173.27669,-0.31 0.83081,0 1.1381,-0.23 29.59077,-0.01 59.18153,-0.09 0.56906,0 1.13811,0 30.86544,0.08 61.74227,-0.03 85.68802,-0.31 169.00879,-0.46 0.99015,0 1.99169,-0.01 28.88514,-0.15 57.75889,-0.28 c 8.63823,-0.03 17.29922,-0.12 25.99435,-0.14 4.23376,-0.02 7.19283,1.47 10.92582,2.48 q 2.12826,0.59 3.72161,1.98 c 2.23069,1.97 5.24667,3.38 6.93107,5.78 1.02429,1.45 2.56074,2.6 3.1867,4.2 q 1.5023,3.79 3.18669,7.86 0.93325,2.27 0.48939,5.17 -0.81944,5.29 -2.35588,10.32 -33.39204,109.409999 -66.92065,220.179999 c -0.86496,2.86 -1.75269,6.48 -5.09872,7.89 q -5.14424,2.16 -9.83324,4.3 a 2.0406039,2.3324275 89.493372 0 0 -1.25192,1.86 q 0.091,4.47 -0.0683,9 -0.12519,3.52 -1.70716,5.92 -1.62749,2.48 -3.83542,5 -2.20793,2.53 -5.75882,4.52 -4.42723,2.48 -7.65945,3.27 -3.6078,0.88 -7.2725,1.94 a 13.044434,11.418202 2.1295949 0 1 -4.09719,0.58 l -66.19226,0.03 q -0.34143,0 -0.62596,0.16 -0.1821,0.1 -0.36419,0.1 -124.89579,-0.01 -232.74275,0.21 -1.27468,0.01 -2.56074,0.01 -144.33465,0.07 -289.784641,0.32 -2.549359,0 -4.632093,-0.86 c -2.037211,-0.85 -4.154088,-1.03 -6.077488,-2.04 q -3.994753,-2.11 -8.0350307,-5.13 a 1.7854789,1.5511703 1.2779143 0 1 -0.5690532,-0.84 c -0.3186698,-1.34 -1.3315844,-2.33 -1.4909193,-3.64 q -1.1267253,-9.25 0.1251917,-17.85 0.079667,-0.6 -0.6031963,-0.65 z m 7.1245458,-5.65 q -1.900638,9.66 -0.956009,18.76 0.05691,0.56 0.455242,1 1.217774,1.34 2.219307,2.82 c 2.105497,3.16 9.84462,6.48 13.714182,6.49 q 111.090562,0.29 212.609652,-0.54 11.25587,-0.09 22.75074,0.03 44.92106,0.48 89.66002,0.59 c 8.39923,0.02 17.16264,0.37 25.81225,0.19 22.92146,-0.48 45.88845,-0.22 68.83267,-0.37 q 21.19154,-0.14 73.70377,0.69 11.90459,0.19 22.72799,-0.01 37.01121,-0.69 73.82895,-0.7 3.97199,0 7.04488,-1.12 c 9.66252,-3.49 16.69602,-7.72 17.50408,-17.73 q 0.39833,-4.92 0.37557,-9.75 5.31496,-1.55 10.29987,-3.46 c 5.62224,-2.14 7.21559,-7.43 8.61546,-12.13 q 21.1574,-71.14 42.7928,-144.51 c 6.91969,-23.46 14.39704,-46.799999 21.76059,-70.159999 q 2.15102,-6.82 1.12673,-11.73 -0.72839,-3.45 -4.45,-8.56 -1.70716,-2.32 -4.11994,-3.64 -2.51522,-1.37 -5.04181,-3.01 -2.57213,-1.67 -5.92954,-2.2 -5.07595,-0.81 -8.96828,-0.81 -61.0594,-0.05 -122.18709,-0.03 c -2.35588,0 -4.67762,0.25 -7.01074,0.25 q -39.46953,-0.15 -52.06836,0.11 -30.1143,0.63 -56.90532,0.98 -53.61619,0.69 -105.09274,1.19 -22.13617,0.21 -44.28372,0.47 -33.4148,0.38 -70.82436,0.11 -15.33029,-0.11 -42.12131,0.01 -52.18218,0.23 -112.046576,0.07 c -8.88861,-0.02 -17.731697,-0.35 -26.768261,-0.11 q -4.484139,0.11 -7.636694,1.34 -7.329404,2.84 -15.387197,7.49 -6.248204,3.61 -11.221729,9.88 -2.219307,2.8 -4.256518,8.61 -1.570586,4.52 -3.015981,9.14 -22.4320763,72.049999 -51.965936,169.979999 -2.515215,8.33 -5.303576,18.1 c -1.388489,4.87 -3.64194,18.05 0.887723,21.75 4.210994,3.43 7.352167,6.86 13.224796,8.53 q 2.913552,0.83 8.899992,1 14.1580427,0.39 28.714423,0.99 z"
       id="path79"
       style="fill:#ffffff;fill-opacity:1;stroke-width:1.06682" />
    <path
       d="m 512.1761,116.97953 14.27,-53.609999 q 0.27,-1.01 1.28,-1.27 l 41.48,-10.59 a 0.62,0.63 1.4 0 1 0.75,0.79 l -17.12,56.809999 a 0.69,0.69 0 0 0 0.67,0.89 l 15.75,-0.36 q 1.16,-0.03 0.68,1.03 -0.6,1.3 -1,2.71 -4,13.92 -8.02,27.75 a 0.89,0.9 9.6 0 1 -0.89,0.64 l -14.75,-0.68 a 1.2,1.21 8.1 0 0 -1.23,0.93 l -19.55,83.8 a 1.63,1.63 0 0 0 1.73,2 l 15.45,-1.42 q 0.96,-0.09 0.72,0.85 l -7.58,29.23 a 1.46,1.46 0 0 1 -1.43,1.1 q -15.87,-0.08 -30.65,0.03 -5.31,0.04 -9.73,-1.05 -4.61,-1.13 -8.57,-3.46 -1.64,-0.97 -3.11,-3.27 -1.05,-1.65 -1.35,-3.38 -1.53,-8.82 -0.07,-14.16 12.3,-44.94 25.05,-90.88 0.06,-0.21 -0.15,-0.21 l -4.83,0.1 a 0.3,0.3 0 0 0 -0.29,0.22 l -33.37,118.07 q -0.3,1.06 -1.4,1.04 l -67.69,-0.98 a 1.42,1.38 63 0 1 -0.85,-0.29 l -8.06,-6 q -0.58,-0.43 -0.76,-1.13 c -1.13,-4.35 -2.97,-7.93 -2.84,-12.69 q 0.21,-7.98 1.58,-13.18 14.61,-55.67 29.78,-113.51 a 0.66,0.67 7.4 0 1 0.64,-0.5 l 38.84,0.53 q 1.29,0.02 0.96,1.27 -15.01,56.35 -29.37,110.3 -0.52,1.95 -0.47,3.26 0.07,1.87 0.72,3.23 a 1.9,1.9 0 0 0 3.42,0.01 c 3.52,-7.25 6.24,-14.83 8.43,-22.75 q 13.31,-48.1 26.66,-95.72 0.15,-0.51 0.68,-0.51 l 40.61,0.29 q 0.8,0.01 0.59,0.78 l -1.06,3.78 q -0.25,0.86 0.64,0.78 1.62,-0.16 3.23,0.28 1.24,0.34 1.58,-0.9 z m 2.89,18.27 a 0.22,0.22 0 0 1 0.22,0.27 q -11.55,43.06 -23.08,86.4 -0.89,3.32 -1.47,6.77 c -0.81,4.74 -3.3,15.01 1.31,18.5 q 1.85,1.4 3.98,1.94 c 4.39,1.11 8.46,2.34 13.1,2.58 q 9.95,0.53 19.85,-1.24 0.63,-0.11 0.85,-0.71 l 4.42,-11.96 a 0.5,0.5 0 0 0 -0.44,-0.67 q -5.84,-0.31 -11.61,-0.69 -2.27,-0.15 -4.38,-1.02 -0.49,-0.2 -0.73,-0.67 -2.02,-3.94 -1.26,-6.87 11.05,-42.9 22.29,-86.86 1.04,-4.08 2.23,-8.37 a 0.87,0.89 10.5 0 1 0.91,-0.64 l 15.2,1.33 q 0.57,0.06 0.7,-0.51 l 2.39,-10.72 q 0.14,-0.64 -0.52,-0.66 l -15.29,-0.59 a 0.62,0.63 9.2 0 1 -0.57,-0.8 l 15.68,-54.939999 q 0.22,-0.75 -0.53,-0.51 l -24.52,8 a 1.43,1.45 88.7 0 0 -0.93,0.96 l -14.07,48.099999 q -0.16,0.57 -0.75,0.54 l -12.51,-0.5 q -0.58,-0.02 -0.69,0.55 l -2.4,12.71 q -0.1,0.54 0.45,0.53 z m -92.47,116.82 q 19.16,0.27 38.2,0.66 a 0.6,0.6 0 0 0 0.59,-0.43 l 37.47,-131.22 a 0.39,0.39 0 0 0 -0.38,-0.5 l -25.73,-0.34 q -0.66,-0.01 -0.82,0.63 -12.16,46.85 -24.56,93.09 -2.06,7.68 -6.65,19.81 -0.56,1.47 -1.59,2.2 c -2.64,1.88 -9.5,1.07 -13.29,0.59 -3.75,-0.46 -5.61,-4.09 -5.47,-7.55 q 0.07,-1.74 0.39,-2.95 12.91,-48.29 25.49,-96.26 1.06,-4.06 2.03,-8.2 0.11,-0.45 -0.36,-0.47 l -23.9,-0.95 q -0.58,-0.03 -0.73,0.54 -14.84,55.01 -28.02,104.77 -2.59,9.8 0.38,17.54 1.51,3.94 5.93,7.22 1.85,1.38 4.84,1.47 8.06,0.24 16.18,0.35 z"
       id="path80"
       style="fill:#ffffff;fill-opacity:1" />
    <path
       d="m 282.0761,54.639531 -54.72,204.079999 a 0.49,0.49 0 0 1 -0.47,0.36 l -40.62,0.29 a 0.49,0.49 0 0 1 -0.47,-0.62 l 54.39,-204.029999 a 0.49,0.49 0 0 1 0.47,-0.36 l 40.95,-0.33 a 0.49,0.49 0 0 1 0.47,0.61 z m -9.22,8.99 a 0.63,0.63 0 0 0 -0.62,-0.8 l -23.97,0.34 a 0.63,0.63 0 0 0 -0.6,0.47 l -50.08,189.179999 a 0.63,0.63 0 0 0 0.62,0.79 l 22.01,-0.33 a 0.63,0.63 0 0 0 0.6,-0.47 z"
       id="path81"
       style="fill:#ffffff;fill-opacity:1" />
    <path
       d="m 118.0161,136.71953 -7.28,35.38 a 0.58,0.58 0 0 1 -0.57,0.46 l -46.170003,0.04 a 0.58,0.58 0 0 0 -0.56,0.43 l -22.9,86.29 a 0.58,0.58 0 0 1 -0.58,0.43 l -43.9799998,-0.92 a 0.58,0.58 0 0 1 -0.55,-0.73 L 48.536097,55.239531 a 0.58,0.58 0 0 1 0.56,-0.43 l 94.910003,-0.01 a 0.58,0.58 0 0 1 0.56,0.73 l -10.47,39.14 a 0.58,0.58 0 0 1 -0.57,0.43 l -47.210003,-0.55 a 0.58,0.58 0 0 0 -0.57,0.44 l -10.09,40.449999 a 0.58,0.58 0 0 0 0.56,0.72 l 41.230003,-0.14 a 0.58,0.58 0 0 1 0.57,0.7 z m -52.330003,7.33 15.27,-55.829999 q 0.14,-0.48 0.64,-0.48 l 48.010003,0.3 q 0.64,0 0.8,-0.62 l 5.88,-23.39 a 0.35,0.34 6.6 0 0 -0.34,-0.42 l -80.760003,-0.31 q -0.58,0 -0.73,0.56 L 3.9160972,253.05953 a 0.61,0.6 8.3 0 0 0.57,0.76 l 32.0299998,0.82 q 0.69,0.01 0.86,-0.65 l 22.47,-86.66 q 0.13,-0.5 0.64,-0.5 l 45.930003,-0.46 q 0.54,-0.01 0.66,-0.54 l 4.62,-21.13 q 0.13,-0.57 -0.46,-0.51 -0.15,0.01 -0.29,0.08 -0.19,0.09 -0.42,0.1 -22.140003,0.03 -44.600003,-0.01 -0.32,0 -0.24,-0.31 z"
       id="path82"
       style="fill:#ffffff;fill-opacity:1" />
    <path
       d="m 233.6361,258.60953 53.8,-203.389999 a 0.58,0.58 0 0 1 0.57,-0.43 l 39.48,0.45 a 0.58,0.58 0 0 1 0.56,0.73 l -52.32,202.609999 a 0.58,0.58 0 0 1 -0.56,0.43 l -40.96,0.32 a 0.58,0.58 0 0 1 -0.57,-0.72 z m 11.99,-5.56 a 0.37,0.37 0 0 0 0.37,0.46 l 24.13,-0.61 a 0.37,0.37 0 0 0 0.35,-0.28 l 48.32,-188.269999 a 0.37,0.37 0 0 0 -0.35,-0.46 l -24.19,-0.57 a 0.37,0.37 0 0 0 -0.36,0.28 z"
       id="path83"
       style="fill:#ffffff;fill-opacity:1" />
    <path
       d="m 385.9961,113.38953 q -0.32,0.67 0.27,1.11 c 4.48,3.33 9.62,6.56 13.1,10.94 q 1.54,1.93 1.8,4.68 0.52,5.5 -0.21,9.56 -1.47,8.31 -2.83,17.02 -1.43,9.19 -3.53,16.75 c -3.46,12.42 -6.16,25.57 -10.1,37.79 q -2.82,8.74 -5.95,17.89 c -1.33,3.91 -4.53,8.02 -7.05,11.84 q -1.89,2.86 -4.73,4.83 -7.62,5.27 -14.64,8.47 c -4.13,1.89 -8.44,2.57 -12.91,3.54 q -2.4,0.52 -5.17,0.47 -9.86,-0.19 -19.31,-1.76 -0.96,-0.16 -2.42,1.04 -6.2,5.08 -12.09,9.97 -1.25,1.04 -0.7,-0.49 l 4.28,-11.8 a 1,1 0 0 0 -0.28,-1.09 q -3.17,-2.8 -6.44,-5.33 -2.35,-1.82 -3.84,-4.3 c -1.18,-1.96 -3.01,-3.89 -3.17,-6.29 q -0.43,-6.41 -0.3,-11.49 0.13,-5.23 1.85,-11.47 8.54,-31.03 17.42,-63.81 c 1.38,-5.12 3.29,-9.7 5.02,-14.71 q 1.33,-3.83 3.38,-6.22 8.64,-10 17.47,-14.53 3.8,-1.95 12.18,-4.91 3.52,-1.24 6.42,-1.36 3.71,-0.15 7.35,-0.42 c 5.07,-0.38 10.27,0.32 15.33,0.81 a 2.73,2.71 27.8 0 0 2,-0.61 l 14.73,-12.199999 q 1.49,-1.23 0.64,0.5 z m -33.24,76.87 q 1.26,0 0.54,1.03 -20.77,30.07 -42.33,60.64 -0.03,0.05 0.01,0.08 l 0.21,0.16 q 0.05,0.05 0.1,-0.01 l 63.93,-72.45 q 1.09,-1.24 -0.55,-1.27 l -35.48,-0.74 a 0.62,0.62 0 0 1 -0.5,-0.96 l 38.95,-59.54 q 0.32,-0.49 -0.19,-0.21 -0.25,0.14 -0.42,0.36 -2.88,3.75 -6.52,8.08 -28.23,33.58 -53.6,64.45 a 0.36,0.36 0 0 0 0.28,0.59 z m -42.46,3.32 q -0.88,0.01 -0.31,-0.66 l 62.67,-73.67 a 0.43,0.43 0 0 0 -0.31,-0.71 q -5.98,-0.2 -11.3,-0.57 c -2.84,-0.2 -5.58,0.34 -8.4,0.56 -4.07,0.33 -9.74,1.98 -12.67,4.1 q -4.16,3 -8.66,6.14 -2.96,2.06 -5.3,5.24 c -4.43,6 -7.03,12.93 -9.03,19.95 q -8.63,30.18 -17.22,60.38 -3.25,11.42 -1.85,23.71 0.41,3.56 2.44,5.27 3.41,2.86 7.32,5.82 a 0.96,0.96 0 0 0 1.37,-0.21 l 38.74,-55.4 a 0.42,0.42 0 0 0 -0.35,-0.66 z m 72.56,-17.94 q 0.52,0.04 0.18,0.44 l -64.14,74.44 a 0.41,0.41 0 0 0 0.15,0.65 c 2.13,0.9 4.36,1.97 6.79,1.78 q 7.99,-0.62 14.94,-1.85 c 3.37,-0.6 6.63,-2.33 9.81,-3.66 4.5,-1.87 9.48,-4.7 13.04,-7.99 q 5.59,-5.15 8.23,-14.29 6.94,-23.99 14.89,-47.51 1.84,-5.44 2.6,-10.87 2.36,-16.88 4.21,-32.96 a 1.68,1.76 34.2 0 0 -0.16,-0.96 q -1.14,-2.32 -2.18,-4.72 c -1.82,-4.18 -6.23,-7.2 -10.16,-9.35 q -0.45,-0.25 -0.74,0.18 l -36.32,55.16 a 0.31,0.31 0 0 0 0.25,0.48 q 17.47,0.32 33.96,0.81 2.24,0.06 4.65,0.22 z"
       id="path84"
       style="fill:#ffffff;fill-opacity:1" />
    <path
       d="m 141.8061,256.47953 q -3.75,1.16 -7.21,2.39 -3.63,1.29 -7.36,1.5 -8.18,0.46 -17.04,-0.34 -2.46,-0.22 -4.81,-1.62 c -4.27,-2.52 -6.550003,-5.44 -9.180003,-9.43 q -0.23,-0.36 -0.18,-0.79 1.81,-14.26 3.48,-29.17 c 0.790003,-7.04 3.280003,-13.49 5.270003,-20.15 q 1.08,-3.61 2.68,-6.84 c 1.52,-3.06 2.68,-6.42 4.74,-9.13 2.47,-3.21 4.48,-6.73 7.9,-9.17 q 6.7,-4.76 13.05,-7.22 2.24,-0.86 -0.15,-1.14 l -16,-1.86 a 0.68,0.69 10.6 0 1 -0.58,-0.86 q 3.69,-14.27 6.64,-25.82 c 0.87,-3.41 3.68,-7.5 6.3,-10.15 q 6.76,-6.86 15.44,-11.3 4.1,-2.09 9.75,-2.74 15.55,-1.78 31.78,0.09 10.05,1.16 14.33,4.01 7.91,5.26 8.68,15.1 c 0.85,10.77 -0.85,20.56 -3.78,31.66 q -5.3,20.09 -10.66,40.79 -6.86,26.52 -15.55,54.73 a 0.62,0.61 8.2 0 1 -0.59,0.44 l -36.38,-0.18 a 0.76,0.76 0 0 1 -0.68,-1.09 l 0.57,-1.18 q 0.38,-0.79 -0.46,-0.53 z m 14.89,-16.14 q 0.59,-0.43 0.38,0.27 l -3.42,11.62 a 0.78,0.78 0 0 0 0.76,1 l 20.61,-0.2 a 1.03,1.02 5.6 0 0 0.99,-0.81 q 2.22,-10.5 5.34,-22.15 9.65,-35.98 19.31,-72.26 0.58,-2.17 0.75,-4.3 0.73,-8.89 1.12,-17.85 0.2,-4.45 -1.83,-8.54 -1.08,-2.16 -3.15,-3.5 -2.95,-1.91 -5.43,-2.04 -8.47,-0.44 -17.74,-0.72 c -6.41,-0.2 -13.84,0.13 -19.46,1.16 -7.07,1.3 -12.79,6.11 -17.81,11.51 -2.57,2.77 -5.17,6.76 -6.26,10.24 q -1.95,6.24 -3.57,12.82 -0.16,0.65 0.5,0.68 l 21.88,1 q 0.5,0.02 0.6,-0.47 1.19,-5.63 2.35,-11.78 0.35,-1.89 1.71,-3.56 3.23,-3.99 5.99,-5.23 6.2,-2.78 14.16,-1.73 1.25,0.16 2.4,1.19 0.36,0.33 0.48,0.81 c 0.51,2.12 1.17,4.23 1.05,6.44 -0.5,9.02 -3.23,17.99 -5.01,26.93 q -0.15,0.77 -0.93,0.77 -13.4,-0.01 -25.52,0.75 -5.95,0.38 -10.59,2.2 -4.95,1.94 -9.61,5.38 c -2.52,1.87 -4.28,4.61 -6.3,7 q -2.19,2.57 -3.43,5.82 c -1.86,4.9 -4.13,9.64 -5.54,14.63 -1.22,4.33 -2.54,8.78 -3.17,13.07 q -1.47,10.09 -3.11,20.72 c -0.39,2.48 0.36,4.66 0.67,7.1 0.35,2.74 3.22,4.07 5.62,4.27 q 5.18,0.44 10.67,1.28 3.91,0.6 7.98,-0.1 5.77,-0.99 10.63,-2.59 3.04,-1.01 6.07,-3.39 4.82,-3.78 9.86,-7.44 z m 3.14,-92.19 q -0.47,0.96 -0.66,1.9 -1.37,6.94 -2.75,14.3 a 0.58,0.58 0 0 0 0.56,0.68 l 9.19,0.16 q 0.61,0.01 0.72,-0.59 l 4.24,-22.6 a 0.84,0.84 0 0 0 -0.93,-0.99 q -7.37,0.96 -10.37,7.14 z"
       id="path85"
       style="fill:#ffffff;fill-opacity:1" />
    <path
       d="m 141.4061,195.48953 c 1.21,-3.58 4.77,-5.37 8.26,-6.55 q 9.13,-3.06 18.71,-2.57 a 0.36,0.36 0 0 1 0.33,0.44 l -8.72,36.47 q -0.33,1.37 -1.08,2.55 -1.31,2.03 -2.76,4.16 c -1.93,2.82 -4.98,5.01 -7.5,7.27 -1.91,1.72 -5.83,2.64 -8.45,2.41 q -3.71,-0.34 -7.44,-0.96 a 1.6,1.64 76.6 0 1 -1,-0.6 c -3.03,-3.92 -1.8,-7.98 -0.46,-12.14 q 4.43,-13.73 10.11,-30.48 z m 18.32,-0.58 q 0.28,-0.88 0.5,-1.71 a 0.5,0.5 0 0 0 -0.53,-0.62 c -4.36,0.41 -7.41,0.49 -11.11,3.43 q -1.57,1.25 -2.32,3.7 -4.38,14.46 -8.81,29.11 a 2.1,2.09 11.9 0 0 1.76,2.69 q 4.1,0.49 8.01,-3.2 3.22,-3.02 4.25,-6.51 3.97,-13.57 8.25,-26.89 z"
       id="path86"
       style="fill:#ffffff;fill-opacity:1" />
    <path
       d="m 218.49724,284.18953 c -1.11,-0.51 -2.04,0.08 -2.41,1.19 q -2.51,7.57 -4.87,15.17 -0.77,2.48 0.56,4.25 0.38,0.5 0.81,0.04 2.25,-2.45 3.09,-6.29 a 0.57,0.57 0 0 1 0.75,-0.41 q 1.71,0.63 3.84,0.57 a 0.49,0.48 3 0 1 0.5,0.55 c -0.36,2.49 -1.16,8.23 -3.74,9.55 -1.75,0.89 -3.37,1.78 -5.42,1.42 -1.19,-0.22 -2.3,0.3 -3.47,-0.06 q -3.02,-0.9 -3.83,-3.59 a 1.75,1.73 46.5 0 1 0.02,-1.03 q 3.39,-10.42 7.18,-22.06 c 0.71,-2.2 2.04,-5.01 4.54,-5.51 q 3.94,-0.79 7.67,0.25 0.42,0.12 0.56,0.54 c 0.47,1.39 1.05,2.75 0.54,4.24 q -1.01,2.99 -1.82,5.83 -0.21,0.75 -1,0.71 l -2.7,-0.12 q -1.11,-0.05 -0.92,-1.15 l 0.56,-3.24 a 0.77,0.78 17.3 0 0 -0.44,-0.85 z"
       id="path87"
       style="fill:#ffffff;fill-opacity:1" />
    <path
       d="m 468.44724,291.11953 q -0.11,2.97 0.72,0.12 l 3.89,-13.35 q 0.07,-0.25 0.34,-0.23 l 5.47,0.44 q 0.2,0.02 0.13,0.2 l -11.74,32.24 q -0.27,0.75 -0.99,0.41 -0.54,-0.27 -1.12,-0.12 -0.7,0.17 -0.74,-0.54 l -0.72,-13.09 a 0.21,0.21 0 0 0 -0.41,-0.06 l -3.72,11.25 q -0.38,1.17 -1.61,1.12 l -1.51,-0.06 q -1.19,-0.05 -0.84,-1.18 l 9.11,-30 a 0.69,0.68 16 0 1 0.84,-0.46 q 1.41,0.4 2.7,0.21 0.66,-0.1 0.63,0.56 z"
       id="path88"
       style="fill:#ffffff;fill-opacity:1" />
    <path
       d="m 128.69724,305.38953 2.97,-0.37 q 0.61,-0.07 0.76,-0.67 l 1.05,-4.37 a 2.3,2.31 25.8 0 0 -0.81,-2.34 l -4.51,-3.59 q -0.51,-0.4 -0.61,-1.04 c -0.2,-1.2 -0.56,-2.28 -0.15,-3.49 q 1.27,-3.76 2.15,-7.81 0.25,-1.17 1.23,-1.71 c 2.21,-1.25 12.89,-4.96 11.7,1.2 q -0.67,3.45 -1.59,6.65 -0.05,0.2 -0.26,0.2 l -3.53,-0.03 q -0.14,0 -0.13,-0.14 l 0.3,-4.01 q 0.05,-0.61 -0.56,-0.67 c -3.46,-0.33 -3.75,4.79 -3.5,7.18 a 2.02,2.02 0 0 0 1.05,1.55 l 3.05,1.62 a 3.21,3.22 20.5 0 1 1.62,3.57 q -0.79,3.32 -1.69,6.75 c -0.7,2.67 -2.45,4.04 -4.3,5.82 -3.5,3.35 -11.26,-0.88 -9.7,-5.9 q 0.45,-1.45 0.78,-2.86 0.08,-0.32 0.41,-0.29 l 3.73,0.39 q 0.21,0.02 0.19,0.23 l -0.28,3.54 a 0.55,0.56 88.3 0 0 0.63,0.59 z"
       id="path89"
       style="fill:#ffffff;fill-opacity:1" />
    <path
       d="m 178.13724,294.75953 q -0.05,2.39 0.68,0.11 l 5.14,-15.96 a 1.11,1.12 13.1 0 1 1.21,-0.76 l 2.96,0.41 q 0.79,0.11 0.53,0.86 l -10.56,30.53 q -0.21,0.61 -0.86,0.61 h -2.58 a 0.54,0.54 0 0 1 -0.54,-0.55 l 0.41,-14.89 q 0.05,-1.6 -0.53,-0.11 l -5.91,15.4 q -0.17,0.44 -0.64,0.42 l -2.85,-0.06 q -0.88,-0.02 -0.6,-0.85 l 10.66,-31.6 q 0.29,-0.87 1.14,-0.53 0.87,0.36 1.85,0.41 0.82,0.04 0.8,0.85 z"
       id="path90"
       style="fill:#ffffff;fill-opacity:1" />
    <path
       d="m 193.15724,305.02953 a 1.5,1.51 89 0 0 0.89,-0.91 l 8.85,-25.34 a 0.53,0.55 8.1 0 1 0.45,-0.35 l 5.79,-0.5 a 0.16,0.16 0 0 1 0.16,0.21 q -4.65,12.66 -9.4,25.05 c -2.16,5.63 -4.25,8.95 -10.83,7.37 -2.35,-0.57 -4.74,-3.22 -3.85,-5.84 q 4.66,-13.81 8.63,-26 a 0.54,0.54 0 0 1 0.51,-0.37 l 4.82,-0.05 a 0.14,0.14 0 0 1 0.13,0.18 q -4.02,11.93 -7.99,23.48 -0.45,1.29 0.23,2.77 0.35,0.77 1.61,0.3 z"
       id="path91"
       style="fill:#ffffff;fill-opacity:1" />
    <path
       d="m 481.24724,306.06953 c 3.6,-0.8 3.35,-3.58 4.33,-6.39 q 0.22,-0.64 -0.45,-0.64 l -0.38,-0.01 q -1.26,-0.01 -0.83,-1.19 l 1.17,-3.21 q 0.3,-0.82 1.17,-0.76 l 6.29,0.41 q 0.86,0.06 0.56,0.86 -1.62,4.43 -3.46,9.06 c -1.09,2.72 -2.86,3.71 -5,5.35 -2.3,1.78 -6.7,-0.23 -8.58,-1.66 a 1.57,1.56 16.9 0 1 -0.61,-1.13 q -0.14,-1.97 0.51,-3.91 3.47,-10.39 6.77,-20.29 c 1.71,-5.13 7.91,-5.42 12.19,-3.65 a 1.43,1.49 88.8 0 1 0.74,0.68 q 1.04,2.04 0.51,3.81 -0.78,2.61 -1.49,5.76 a 1.25,1.25 0 0 1 -1.49,0.94 l -2.55,-0.59 q -1.45,-0.32 -0.86,-1.69 0.86,-2.01 0.01,-3.11 a 1.9,2.01 35.5 0 0 -3.37,0.66 q -2.87,7.91 -5.47,16.02 -0.6,1.88 -0.53,4.03 0.02,0.82 0.82,0.65 z"
       id="path92"
       style="fill:#ffffff;fill-opacity:1" />
    <path
       d="m 578.20724,291.00953 2.61,0.15 a 0.49,0.49 0 0 1 0.44,0.65 l -1.62,4.88 a 0.49,0.49 0 0 1 -0.53,0.33 l -3.2,-0.43 a 0.49,0.49 0 0 0 -0.53,0.32 l -3.02,8.17 a 0.49,0.49 0 0 0 0.45,0.66 l 3.79,0.08 a 0.49,0.49 0 0 1 0.45,0.66 l -1.51,3.98 a 0.49,0.49 0 0 1 -0.49,0.32 l -8.79,-0.56 a 0.49,0.49 0 0 1 -0.44,-0.63 l 9.31,-31.08 a 0.49,0.49 0 0 1 0.45,-0.35 l 10.09,-0.36 a 0.49,0.49 0 0 1 0.49,0.63 l -1.77,5.55 a 0.49,0.49 0 0 1 -0.5,0.34 l -3.92,-0.21 a 0.49,0.49 0 0 0 -0.5,0.35 l -1.7,5.93 a 0.49,0.49 0 0 0 0.44,0.62 z"
       id="path93"
       style="fill:#ffffff;fill-opacity:1" />
    <path
       d="m 249.61724,290.08953 q 0.82,-0.02 1.67,0.29 0.71,0.26 0.55,1 l -0.93,4.27 a 0.96,0.96 0 0 1 -1.05,0.76 l -2.96,-0.31 q -0.58,-0.06 -0.78,0.48 l -3.18,8.48 a 0.56,0.56 0 0 0 0.51,0.76 l 2.72,0.06 q 0.95,0.02 0.63,0.91 l -0.69,1.94 q -0.38,1.06 -1.51,1.01 l -7.24,-0.33 q -0.92,-0.04 -0.63,-0.91 l 9.86,-29.77 q 0.22,-0.66 0.91,-0.66 h 8.03 q 1.11,0 0.84,1.08 l -1.26,5.13 q -0.17,0.69 -0.87,0.56 l -2.96,-0.54 a 0.68,0.68 0 0 0 -0.76,0.46 l -1.44,4.63 q -0.23,0.72 0.54,0.7 z"
       id="path94"
       style="fill:#ffffff;fill-opacity:1" />
    <path
       d="m 319.39724,304.33953 c 2.65,-7.49 5.34,-15.19 7.82,-22.95 0.86,-2.69 5.52,-3.32 8.11,-3.29 4.31,0.05 6.03,3.42 4.77,7.24 q -4.01,12.2 -7.65,23.4 -0.6,1.81 -2.51,1.74 c -2.79,-0.1 -12.31,-1.11 -10.54,-6.14 z m 15.4725,-19.4511 a 1.77,1.77 0 0 0 -1.1675,-2.2143 l -0.0764,-0.0236 a 1.77,1.77 0 0 0 -2.2142,1.1674 l -5.8669,18.9527 a 1.77,1.77 0 0 0 1.1675,2.2143 l 0.0764,0.0236 a 1.77,1.77 0 0 0 2.2142,-1.1674 z"
       id="path95"
       style="fill:#ffffff;fill-opacity:1" />
    <path
       d="m 401.86724,305.47953 3.12,0.3 a 0.65,0.65 0 0 1 0.55,0.85 l -1.07,3.22 q -0.13,0.39 -0.54,0.36 l -7.93,-0.65 a 0.54,0.54 0 0 1 -0.47,-0.69 l 9.38,-30.37 q 0.13,-0.44 0.58,-0.3 1.87,0.57 4.99,0.35 0.27,-0.02 0.18,0.24 l -9.06,26.29 a 0.31,0.31 0 0 0 0.27,0.4 z"
       id="path96"
       style="fill:#ffffff;fill-opacity:1" />
    <path
       d="m 417.48724,304.11953 -1.86,-0.34 a 0.9,0.91 22.3 0 0 -0.9,0.38 l -3.83,5.63 a 1.22,1.21 22 0 1 -1.22,0.51 q -1.01,-0.18 -2.05,-0.16 -0.58,0.02 -0.35,-0.51 l 13.43,-31.31 q 0.11,-0.26 0.4,-0.24 l 7.41,0.63 q 0.27,0.02 0.2,0.28 l -8.1,31.88 q -0.19,0.76 -0.95,0.55 -1,-0.26 -2.07,-0.18 a 0.63,0.63 0 0 1 -0.66,-0.75 l 1.06,-5.64 q 0.11,-0.62 -0.51,-0.73 z m 3.67,-18.25 -4.71,12.66 a 0.27,0.27 0 0 0 0.29,0.36 q 1.16,-0.15 2.15,0.17 a 0.37,0.38 16.4 0 0 0.48,-0.27 l 3.13,-12.82 q 0.21,-0.86 -0.62,-0.55 l -0.43,0.16 a 0.5,0.5 0 0 0 -0.29,0.29 z"
       id="path97"
       style="fill:#ffffff;fill-opacity:1" />
    <path
       d="m 437.96724,288.35953 q -0.12,1.19 0.53,0.19 l 6.5,-9.96 a 0.99,0.96 19.7 0 1 0.95,-0.43 l 3.99,0.57 q 0.13,0.02 0.06,0.13 -4.61,6.8 -9.1,13.27 -2.39,3.43 -3.91,7.58 -2.11,5.76 -4.01,10.62 -0.09,0.22 -0.31,0.19 l -3.48,-0.38 q -0.26,-0.03 -0.19,-0.28 1.8,-5.79 3.73,-11.54 1.07,-3.17 1.07,-6.61 0,-6.93 0.19,-13.29 0.02,-0.44 0.46,-0.4 l 4.04,0.37 q 0.42,0.04 0.38,0.46 z"
       id="path98"
       style="fill:#ffffff;fill-opacity:1" />
    <path
       d="m 459.93724,278.49953 -10.9,30.35 a 0.32,0.32 0 0 1 -0.32,0.21 l -3.61,-0.17 a 0.32,0.32 0 0 1 -0.29,-0.42 l 9.37,-29.66 a 0.32,0.32 0 0 1 0.27,-0.22 l 5.15,-0.52 a 0.32,0.32 0 0 1 0.33,0.43 z"
       id="path99"
       style="fill:#ffffff;fill-opacity:1" />
    <path
       d="m 519.39724,284.28953 q -2.01,-0.18 -2.58,1.14 -3.92,9.08 -7.21,17.52 -0.56,1.43 0.34,2.57 a 2,1.99 57.3 0 0 2.48,0.55 q 3.06,-1.56 3.1,-5.81 a 0.7,0.69 87.1 0 0 -0.77,-0.7 q -0.31,0.04 -0.6,-0.09 -0.53,-0.22 -0.38,-0.78 l 1.05,-3.85 q 0.3,-1.09 1.42,-0.94 2.7,0.37 5.74,0.28 1.32,-0.04 0.86,1.19 -1.95,5.25 -4.05,10.21 c -1.16,2.74 -3.59,5.64 -6.92,5.07 q -2.32,-0.39 -4.49,-1.06 a 2.62,2.63 9.8 0 1 -1.83,-2.61 c 0.24,-5.82 2.41,-11.61 3.73,-17.22 1.08,-4.56 4.32,-11.44 9.75,-11.58 2.92,-0.07 8,-0.38 7.26,4.2 q -0.58,3.55 -2.85,8.17 -0.13,0.27 -0.44,0.22 l -4.17,-0.63 q -0.13,-0.02 -0.1,-0.15 l 1.26,-4.86 q 0.2,-0.77 -0.6,-0.84 z"
       id="path100"
       style="fill:#ffffff;fill-opacity:1" />
    <path
       d="m 66.577237,304.67953 q 0.24,-0.66 -0.46,-0.71 l -2.84,-0.22 q -0.83,-0.06 -1.14,0.72 l -1.52,3.82 a 0.93,0.94 15.6 0 1 -1,0.57 q -1.73,-0.27 -3.31,0.2 -0.43,0.12 -0.25,-0.29 l 13.13,-29.82 q 0.33,-0.76 1.16,-0.7 l 5.97,0.37 q 0.53,0.04 0.41,0.56 l -6.59,28.44 q -0.15,0.62 -0.77,0.74 l -2.89,0.53 q -0.57,0.11 -0.57,-0.47 0.02,-1.91 0.67,-3.74 z m 5.47,-19.24 a 0.35,0.35 0 0 0 -0.26,-0.44 l -0.99,-0.23 a 0.35,0.35 0 0 0 -0.4,0.21 l -5.76,13.41 a 0.35,0.35 0 0 0 0.3,0.48 l 2.93,0.15 a 0.35,0.35 0 0 0 0.36,-0.26 z"
       id="path101"
       style="fill:#ffffff;fill-opacity:1" />
    <path
       d="m 92.367237,300.17953 -2.82,8.4 q -0.26,0.8 -1.1,0.74 l -2.28,-0.14 q -0.84,-0.05 -0.57,-0.85 l 9.89,-29.43 q 0.22,-0.65 0.91,-0.62 l 8.580003,0.35 a 1.56,1.56 0 0 1 1.45,1.19 q 0.54,2.25 -0.34,4.61 -1.93,5.16 -3.98,10.14 c -1.45,3.53 -4.910003,5.26 -8.780003,4.97 q -0.73,-0.06 -0.96,0.64 z m 9.044303,-15.2354 a 0.97,0.97 0 0 0 -0.6185,-1.2244 l -0.931,-0.3061 a 0.97,0.97 0 0 0 -1.2244,0.6185 l -2.854703,8.6828 a 0.97,0.97 0 0 0 0.6185,1.2244 l 0.931,0.3061 a 0.97,0.97 0 0 0 1.224403,-0.6185 z"
       id="path102"
       style="fill:#ffffff;fill-opacity:1" />
    <path
       d="m 149.19724,284.30953 -2.09,-0.47 q -0.67,-0.16 -0.5,-0.82 l 1.02,-4.08 q 0.17,-0.71 0.9,-0.69 l 11.61,0.37 q 1.04,0.03 0.7,1.01 l -1.3,3.72 q -0.43,1.25 -1.71,0.95 -0.82,-0.18 -1.59,0.06 -0.48,0.16 -0.63,0.64 l -7.85,24.11 q -0.14,0.43 -0.59,0.4 l -4.88,-0.34 a 0.3,0.3 0 0 1 -0.27,-0.4 l 7.76,-23.43 q 0.27,-0.83 -0.58,-1.03 z"
       id="path103"
       style="fill:#ffffff;fill-opacity:1" />
    <path
       d="m 230.73724,304.07953 2.31,0.16 a 0.49,0.49 0 0 1 0.45,0.57 l -0.69,4.12 a 0.49,0.49 0 0 1 -0.55,0.4 l -8.05,-1.02 a 0.49,0.49 0 0 1 -0.41,-0.63 l 8.78,-29.04 a 0.49,0.49 0 0 1 0.48,-0.35 l 4.79,0.03 a 0.49,0.49 0 0 1 0.46,0.64 l -8,24.48 a 0.49,0.49 0 0 0 0.43,0.64 z"
       id="path104"
       style="fill:#ffffff;fill-opacity:1" />
    <path
       d="m 283.95724,294.78953 q 1.67,2.06 1.05,4.37 -1.4,5.24 -2.77,10.46 -0.2,0.75 -0.98,0.65 l -3.54,-0.46 q -0.74,-0.1 -0.51,-0.81 1.87,-5.64 3.1,-11.6 a 0.7,0.7 0 0 0 -0.67,-0.84 l -0.51,-0.02 a 1.51,1.51 0 0 0 -1.46,1.03 l -3.76,11.3 q -0.07,0.18 -0.26,0.18 l -4.56,-0.02 q -0.14,0 -0.1,-0.13 l 10.21,-30.15 a 0.71,0.71 0 0 1 0.75,-0.48 q 3.51,0.37 7.14,0.53 3.96,0.18 3.69,4.15 -0.18,2.73 -1.28,6.69 c -0.73,2.62 -2.93,3.77 -5.31,4.43 q -0.66,0.19 -0.23,0.72 z m -1.33,-10.75 -2.21,7.1 a 0.7,0.7 0 0 0 0.46,0.88 l 0.2,0.06 a 2.37,2.57 17.3 0 0 3.03,-1.75 l 1.1,-3.53 a 2.37,2.57 17.3 0 0 -1.5,-3.16 l -0.2,-0.06 a 0.7,0.7 0 0 0 -0.88,0.46 z"
       id="path105"
       style="fill:#ffffff;fill-opacity:1" />
    <path
       d="m 315.26724,295.37953 q 0.77,1.09 1.09,2.36 0.13,0.55 -0.03,1.08 l -3.22,10.87 q -0.18,0.61 -0.81,0.55 l -3.14,-0.29 a 0.56,0.56 0 0 1 -0.49,-0.7 l 2.97,-11.22 a 1.34,1.34 0 0 0 -0.6,-1.49 q -0.4,-0.24 -0.81,-0.29 -1.63,-0.16 -2.16,1.39 l -3.73,10.83 a 0.57,0.58 12.5 0 1 -0.59,0.38 l -4.36,-0.42 q -0.26,-0.02 -0.19,-0.28 l 8.87,-29.05 a 0.69,0.68 7.1 0 1 0.63,-0.48 l 10.06,-0.36 q 0.72,-0.03 0.91,0.67 c 1.04,4.07 1.32,9.66 -1.14,13.17 -0.8,1.14 -2.05,1.51 -3.12,2.32 q -0.54,0.41 -0.14,0.96 z m 0.4,-8.29 a 1.4,1.4 0 0 0 -0.07,-0.91 l -0.92,-2.09 a 1.4,1.4 0 0 0 -2.64,0.23 l -1.57,6.36 a 1.4,1.4 0 0 0 1.9,1.62 l 1.56,-0.64 a 1.4,1.4 0 0 0 0.82,-0.95 z"
       id="path106"
       style="fill:#ffffff;fill-opacity:1" />
    <path
       d="m 549.76724,296.82953 q 0.09,-3.13 -0.84,-0.14 l -4.03,13.01 q -0.08,0.26 -0.34,0.26 l -4.01,0.04 q -0.34,0.01 -0.23,-0.31 5.33,-16.19 10.26,-30.87 a 0.37,0.38 10.4 0 1 0.37,-0.26 l 5.52,0.01 q 0.26,0 0.22,0.25 l -1.9,12.92 q -0.23,1.51 0.52,0.18 l 7.12,-12.79 a 0.97,0.96 12.1 0 1 0.77,-0.49 l 5.29,-0.34 q 1.34,-0.09 0.93,1.19 l -9.87,31.06 q -0.31,0.99 -1.33,0.76 l -2.28,-0.5 a 1.05,1.05 0 0 1 -0.8,-1.27 l 2.87,-11.83 q 0.84,-3.45 -0.97,-0.4 l -6.68,11.23 q -0.95,1.61 -0.9,-0.26 z"
       id="path107"
       style="fill:#ffffff;fill-opacity:1" />
    <path
       d="m 345.93724,304.58953 2.3,0.1 q 0.69,0.03 0.45,0.68 -0.52,1.43 -0.44,3.03 0.04,0.85 -0.8,0.74 l -8.04,-1.02 q -0.64,-0.08 -0.44,-0.69 l 9.28,-28.03 q 0.28,-0.84 1.16,-0.84 h 3.95 q 0.67,0 0.45,0.63 l -8.43,24.59 q -0.26,0.78 0.56,0.81 z"
       id="path108"
       style="fill:#ffffff;fill-opacity:1" />
    <path
       d="m 359.47724,304.67953 3.48,0.22 q 0.65,0.04 0.51,0.68 l -0.88,3.91 a 0.98,0.98 0 0 1 -1.04,0.77 l -9.67,-0.82 a 0.56,0.56 0 0 1 -0.48,-0.73 l 9.79,-29.64 a 0.77,0.77 0 0 1 0.74,-0.52 l 9.61,0.14 q 0.33,0 0.23,0.32 l -1.37,4.49 q -0.08,0.28 -0.37,0.25 l -3.19,-0.31 q -0.93,-0.09 -1.23,0.8 l -1.84,5.41 q -0.3,0.89 0.65,0.91 1.62,0.02 3.14,0.48 0.64,0.2 0.29,0.77 -1.29,2.03 -1.73,4.27 -0.14,0.7 -0.84,0.71 l -2.84,0.03 q -0.74,0.01 -1.01,0.69 l -2.53,6.25 q -0.35,0.86 0.58,0.92 z"
       id="path109"
       style="fill:#ffffff;fill-opacity:1" />
    <path
       d="m 387.00724,300.05953 -3.38,9.33 q -0.29,0.81 -1.15,0.73 l -3.5,-0.33 q -0.65,-0.06 -0.46,-0.69 l 9.26,-29.98 q 0.18,-0.57 0.78,-0.57 3.37,-0.01 6.88,0.04 c 3.12,0.05 4.88,1.19 3.66,4.63 q -1.86,5.28 -3.8,10.92 -1.15,3.32 -3.68,5.42 -0.39,0.32 -0.88,0.21 -1.51,-0.34 -3.1,-0.2 -0.47,0.05 -0.63,0.49 z m 4.66,-17.43 -3.75,11.76 a 0.21,0.21 0 0 0 0.13,0.26 l 0.8,0.26 a 2.37,4.79 17.7 0 0 3.72,-3.85 l 0.96,-3.02 a 2.37,4.79 17.7 0 0 -0.8,-5.29 l -0.8,-0.25 a 0.21,0.21 0 0 0 -0.26,0.13 z"
       id="path110"
       style="fill:#ffffff;fill-opacity:1" />
    <path
       d="m 531.79724,303.65953 -2.68,-0.19 a 0.33,0.33 0 0 0 -0.31,0.17 l -3.27,5.72 a 0.33,0.33 0 0 1 -0.29,0.17 l -3.86,-0.04 a 0.33,0.33 0 0 1 -0.3,-0.47 l 13.87,-30.22 a 0.33,0.33 0 0 1 0.3,-0.19 l 8.29,-0.1 a 0.33,0.33 0 0 1 0.33,0.42 l -7.88,31.23 a 0.33,0.33 0 0 1 -0.34,0.25 l -4.33,-0.19 a 0.33,0.33 0 0 1 -0.31,-0.39 l 1.08,-5.79 a 0.33,0.33 0 0 0 -0.3,-0.38 z m 5.89,-18.11 a 0.28,0.28 0 0 0 -0.29,-0.35 l -0.68,0.03 a 0.28,0.28 0 0 0 -0.25,0.18 l -5.3,12.99 a 0.28,0.28 0 0 0 0.21,0.38 l 2.55,0.44 a 0.28,0.28 0 0 0 0.31,-0.21 z"
       id="path111"
       style="fill:#ffffff;fill-opacity:1" />
    <path
       d="m 103.76724,304.84953 c 2.34,-7.85 5.1,-15.45 7.9,-23.21 1.05,-2.93 7.24,-2.92 9.74,-2.9 4.28,0.05 3.5,5.46 2.58,8.06 q -3.41,9.6 -6.7,18.68 -1.54,4.24 -5.62,5.65 -0.53,0.18 -1.06,0.02 c -3.19,-0.93 -8.11,-2.07 -6.84,-6.3 z m 15.075,-19.8862 a 1.49,1.49 0 0 0 -0.8571,-1.925 l -0.0373,-0.0143 a 1.49,1.49 0 0 0 -1.925,0.857 l -7.6906,20.0347 a 1.49,1.49 0 0 0 0.8571,1.925 l 0.0373,0.0143 a 1.49,1.49 0 0 0 1.925,-0.857 z"
       id="path112"
       style="fill:#ffffff;fill-opacity:1" />
    <path
       d="m 260.94724,304.65953 -3.54,-0.74 a 0.3,0.3 0 0 0 -0.35,0.2 l -2.21,6.34 a 0.3,0.3 0 0 1 -0.33,0.2 l -4.47,-0.73 a 0.3,0.3 0 0 1 -0.22,-0.42 l 13.57,-30.48 a 0.3,0.3 0 0 1 0.28,-0.18 l 7.73,0.16 a 0.3,0.3 0 0 1 0.28,0.37 l -7.24,30.7 a 0.3,0.3 0 0 1 -0.32,0.23 l -3.5,-0.33 a 0.3,0.3 0 0 1 -0.27,-0.35 l 0.83,-4.62 a 0.3,0.3 0 0 0 -0.24,-0.35 z m -1.42,-6.28 3.15,1.02 a 0.21,0.21 0 0 0 0.27,-0.13 l 0.06,-0.18 a 1.5,13.42 18 0 0 2.72,-13.23 l -0.71,-0.23 a 1.5,13.42 18 0 0 -5.57,12.3 l -0.06,0.18 a 0.21,0.21 0 0 0 0.14,0.27 z"
       id="path113"
       style="fill:#ffffff;fill-opacity:1" />
  </g>
  <path
     fill="#fffe7a"
     d="m 578.84094,255.60239 q 3.78699,1.33318 6.45137,1.44053 8.27463,0.32682 19.49792,-0.47539 c 6.85394,-0.49655 14.41764,-2.10592 20.70835,-4.43619 q 3.48025,-1.28082 7.90487,-4.43408 c 1.71996,-1.22311 2.63561,-3.00796 4.28797,-4.2723 q 0.57267,-0.44211 0.40183,0.26367 c -1.24069,5.247 -1.9478,10.4454 -3.12528,15.71549 q -0.86768,3.88546 -1.88186,7.62592 -0.7878,2.8676 -3.07635,5.707 c -1.08992,1.35085 -3.32584,1.95005 -4.89288,1.94942 q -18.01069,0.004 -35.23843,1.25805 -4.74715,0.34724 -9.33389,1.03965 c -6.89416,1.04396 -14.08132,1.79788 -20.83863,3.43852 q -5.59649,1.35945 -10.90146,2.71742 c -2.92143,0.74989 -5.66257,0.86469 -8.57823,0.21143 a 0.33384406,0.33384406 0 0 1 -0.20997,-0.50217 q 3.97803,-6.20192 7.94017,-12.70723 3.72475,-6.10601 8.07794,-11.7421 11.97471,-15.50488 22.88701,-29.70396 3.30957,-4.30029 6.84577,-9.13938 3.59372,-4.90294 6.01782,-9.56097 5.56526,-10.68414 6.7713,-21.70258 c 1.03152,-9.44001 -5.88501,-15.2266 -14.66055,-16.13103 q -6.46703,-0.66482 -11.86396,-0.0987 -2.30939,0.24832 -4.46045,1.37231 -5.19003,2.72036 -10.31534,5.01028 -1.13624,0.5095 -2.35811,0.34845 a 0.70941864,0.70941864 0 0 1 -0.43947,-1.18009 q 6.10701,-6.78291 13.71291,-11.92801 c 3.62007,-2.44762 8.53791,-4.46838 13.11558,-5.53112 4.15424,-0.97171 8.20069,-2.18228 12.49739,-2.58171 7.14219,-0.67006 13.40711,-0.83959 20.24579,1.48642 2.86086,0.9661 5.96272,2.89537 8.07081,5.16137 1.64103,1.76465 3.85181,3.36058 4.53496,5.75283 1.2446,4.34544 2.53284,9.28327 1.98264,13.57572 -0.24063,1.82872 -0.29174,3.61538 -0.90588,5.39249 q -2.74174,7.97629 -6.41386,14.1886 -1.77733,2.99977 -3.98737,6.2426 -1.98321,2.92674 -4.54075,5.78137 -17.41713,19.43465 -34.0815,39.9159 -0.30059,0.37621 0.15182,0.53161 z"
     id="path150"
     style="fill:#ffffff;fill-opacity:1;stroke-width:0.83461" />
</svg>
