<?xml version="1.0" encoding="UTF-8" standalone="no"?>
<svg
   version="1.1"
   viewBox="0 0 3790.1997 1124.3257"
   id="svg2"
   sodipodi:docname="mrboom.svg"
   width="3790.1997"
   height="1124.3257"
   inkscape:version="1.4.2 (ebf0e940d0, 2025-05-08)"
   xmlns:inkscape="http://www.inkscape.org/namespaces/inkscape"
   xmlns:sodipodi="http://sodipodi.sourceforge.net/DTD/sodipodi-0.dtd"
   xmlns="http://www.w3.org/2000/svg"
   xmlns:svg="http://www.w3.org/2000/svg">
  <defs
     id="defs2">
    <rect
       x="-4.0637469"
       y="0"
       width="3791.4759"
       height="1121.5942"
       id="rect3" />
    <rect
       x="91.952097"
       y="89.078594"
       width="3647.6161"
       height="918.82374"
       id="rect1" />
    <rect
       x="14.367515"
       y="586.19458"
       width="3827.5061"
       height="704.00824"
       id="rect2" />
  </defs>
  <sodipodi:namedview
     id="namedview2"
     pagecolor="#505050"
     bordercolor="#eeeeee"
     borderopacity="1"
     inkscape:showpageshadow="0"
     inkscape:pageopacity="0"
     inkscape:pagecheckerboard="0"
     inkscape:deskcolor="#505050"
     inkscape:zoom="0.24607831"
     inkscape:cx="1905.8973"
     inkscape:cy="572.98832"
     inkscape:window-width="1920"
     inkscape:window-height="1011"
     inkscape:window-x="0"
     inkscape:window-y="0"
     inkscape:window-maximized="1"
     inkscape:current-layer="svg2" />
  <path
     style="font-size:506.667px;font-family:Bomberman;-inkscape-font-specification:Bomberman;text-align:center;baseline-shift:baseline;text-anchor:middle;white-space:pre;fill:#ffffff"
     d="m 467.16722,596.25435 q 0,28.88 -14.69334,51.68 -19.25333,28.88 -62.32,39.52 -28.37333,7.09333 -55.73333,8.61333 -27.36,1.52 -63.33333,4.05334 -18.24,0.50666 -41.54667,1.01333 -5.06666,0 -26.34666,0 h -8.10667 q -30.4,0 -37.49333,-0.50667 -7.6,0 -16.72,0 -9.12,-0.50666 -20.26667,-1.01333 -1.01333,-1.52 -2.02666,-2.53333 -1.01334,-3.04 -3.54667,-6.58667 -2.53333,-5.57333 -7.09333,-11.65333 -3.54667,-1.01334 -9.12,-16.72 -5.57334,-15.70667 -7.6,-17.22667 -1.01334,-3.54667 -3.04,-8.10667 -0.50667,-2.53333 -2.02667,-6.08 -1.01333,-4.05333 -2.53333,-9.62666 -0.50667,-2.53334 -1.52,-6.08 -1.013335,-9.62667 -4.560002,-25.33334 -1.013333,-12.16 -3.546667,-28.37333 0,-6.08 -1.52,-19.25333 0,-2.02667 -0.506666,-5.06667 0,-7.6 -1.013334,-18.24 0,-8.10666 -0.506666,-18.74666 v -2.02667 q 0,-3.54667 -0.506667,-8.61333 v -42.56 q 0,-20.77334 0,-26.85334 0.506667,-15.2 1.52,-34.95999 0.506667,-11.14667 2.026667,-25.33334 0.506666,-3.04 1.013333,-7.09333 3.546667,-1.52 7.600002,-3.54667 4.05333,-2.02666 8.61333,-5.06666 1.52,-2.53334 17.22667,-6.58667 15.70666,-4.56 17.22666,-5.57333 1.52,-1.52 21.78667,-3.54667 8.61333,-1.01333 11.14667,-2.02667 11.14666,-0.50666 26.34666,-2.02666 13.17334,-1.01334 30.4,-2.02667 15.2,-1.01333 34.45333,-2.02667 13.17334,-1.01333 41.54667,-0.50666 l 34.96,0.50666 q 50.66667,2.02667 79.04,16.72 20.26666,10.13334 30.4,33.44 0.50666,1.01334 9.62666,22.29333 7.09334,16.21334 7.6,28.37334 v 1.52 q 0.50667,12.66666 -5.06666,24.82666 -5.06667,6.58667 -15.70667,19.76 -14.69333,17.22667 -35.46667,27.36 v 0.50667 1.01333 q 5.57334,8.61334 19.76,16.72 18.74667,9.62667 23.30667,13.68 18.24,16.72 25.33333,46.61333 2.53334,11.65334 2.53334,23.30667 z m -156.56,-154.53333 q 0,-10.64 -9.62667,-17.22667 l -1.01333,-0.50666 q -14.69333,-6.08 -22.8,-6.08 -30.4,0 -35.46667,3.54666 -3.54666,0 -7.09333,1.01334 -5.57333,1.01333 -12.16,2.02666 0,22.8 4.05333,24.82667 1.01334,8.10667 4.05334,16.21333 2.53333,1.01334 18.74666,1.01334 12.16,0 13.68,0 10.64,-1.01334 23.30667,-2.53334 6.58667,-1.52 17.22667,-7.09333 7.09333,-6.58667 7.09333,-15.2 z m -0.50667,132.24 q -2.53333,-18.24 -27.86666,-20.26667 h -1.52 -2.02667 q -26.34667,-1.01333 -31.41333,2.02667 -1.01334,0 -12.16,2.02667 -10.64,1.51999 -10.64,3.03999 0,13.68 2.02666,15.2 l 0.50667,1.52 v 0.50667 l 0.50667,1.01333 v 1.01334 q 0.50666,0.50666 1.01333,1.52 0.50667,0.50666 3.04,11.14666 3.04,10.13334 4.56,10.13334 37.49333,0 46.61333,-2.02667 19.76,-4.56 23.81334,-11.65333 5.06666,-4.56 3.54666,-15.2 z m 551.25314,-57.25333 q 0,35.46666 -1.01333,39.52 -7.6,45.09333 -28.37334,72.45333 -8.61333,11.65333 -22.29333,22.29333 -19.25333,29.89333 -61.81333,43.06667 -37.49333,11.65333 -81.06667,12.16 -10.13333,0 -35.97333,-4.05334 l -8.10667,-1.01333 q -12.15999,-1.52 -35.46666,-5.57333 -5.57333,-1.52 -23.81333,-7.6 -16.21334,-5.57334 -24.82667,-11.65334 -1.52,-1.01333 -4.56,-2.53333 l -1.52,-1.52 q -24.32,-16.72 -36.98667,-33.94667 -4.56,-6.08 -14.18666,-22.8 -24.82667,-44.58666 -24.32,-111.97333 v -2.53333 q 0,-37.49333 10.64,-60.29333 5.06666,-25.84 19.25333,-46.10667 1.52,-1.01333 3.04,-2.53333 7.6,-8.61333 25.84,-20.77333 4.05333,-2.53334 12.66667,-8.61334 2.53333,-4.56 6.08,-8.61333 4.56,-2.02667 13.17333,-6.58667 3.04,-0.50666 6.08,-1.01333 3.54667,-2.53333 11.65333,-7.6 2.02667,-1.01333 4.56,-2.53333 8.10667,-5.57334 19.76,-9.62667 5.57334,-0.50667 17.73334,-2.02667 l 4.56,-1.01333 q 7.09333,-1.01333 25.83999,-5.06667 l 2.53334,-1.01333 q 9.12,-0.50667 13.68,-0.50667 42.56,-0.50666 70.93333,13.17334 5.57333,-0.50667 11.14667,-0.50667 h 1.01333 q 4.05333,0.50667 8.61333,0.50667 16.72,7.09333 32.93334,18.74666 3.04,0.50667 5.57333,1.52 14.18666,12.16 26.85333,30.90667 1.01333,3.04 2.02667,5.57333 1.01333,2.02667 11.14666,15.2 5.57334,7.09333 7.6,20.26667 2.53334,2.53333 4.56,4.56 6.08,9.62666 10.13334,20.77333 5.06666,13.17333 4.56,20.26667 -0.50667,5.06666 5.57333,24.82666 6.08,19.25334 4.56,23.81334 z m -153.01333,2.53333 q 0,-47.12 -17.22667,-62.32 -7.6,-6.58667 -22.8,-7.6 l -2.53333,-1.01333 q -12.16,0.50666 -19.25333,5.57333 -10.64,1.52 -16.72,10.13333 -0.50667,7.6 -5.06667,24.32 -3.04,2.02667 -9.62666,8.61334 -1.52,19.25333 0,28.37333 0.50666,5.06667 5.06666,11.14667 1.52,3.54666 3.04,7.09333 5.57333,13.68 18.74667,20.26666 2.02666,1.52 2.53333,6.08 0.50667,6.58667 0.50667,7.6 1.01333,4.05334 4.56,9.12 7.09333,3.54667 14.18666,3.54667 10.64,0 19.25334,-7.6 9.12,-8.10667 9.12,-34.96 0,-10.13333 -1.01334,-17.22666 8.10667,-4.56 10.64,-13.17334 3.54667,7.09334 5.06667,7.09334 1.52,0 1.52,-5.06667 z m -15.70667,-21.28 v -0.50667 q -0.50666,-0.50666 0,0.50667 z m 9.62667,14.69333 q 0,2.53334 -0.50667,4.56 -2.02666,-3.54666 -9.12,-19.25333 10.13334,7.09333 9.62667,14.69333 z m 637.38654,101.84 q 0,1.01333 -7.6,2.53333 -7.0933,1.52 -7.0933,2.53334 -4.0534,1.01333 -8.1067,2.53333 0,1.52 -26.3467,7.6 -25.84,5.57333 -25.84,10.13333 0,-7.6 0.5067,-21.28 -1.0133,-3.54666 -3.04,-38 -1.0133,-26.85333 -5.5733,-26.85333 -1.0134,0 -1.52,0.50667 l -0.5067,0.50667 q -2.5333,2.53333 -27.36,55.22666 -22.8,47.62667 -28.3733,47.62667 -25.84,42.56 -30.4,40.53333 -13.68,-2.02667 -28.88,-7.6 -2.0267,-2.02667 -17.7334,-7.09333 -15.2,-5.06667 -16.72,-7.6 -1.52,-3.04 -8.6133,-20.26667 -6.08,-15.70667 -6.5867,-15.70667 0,0 -6.08,-9.12 -5.5733,-9.62666 -8.6133,-9.62666 -0.5067,0 -1.52,1.01333 -0.5067,0.50667 -1.0133,0.50667 -2.5334,0 -14.6934,-17.73334 -11.6533,-17.73333 -15.2,-17.73333 -3.04,0 -12.6666,-18.24 -5.5734,-10.64 -10.64,-20.77333 -3.5467,-4.05333 -9.6267,-12.16 -2.0267,4.05333 -5.0667,44.08 -3.04,40.02666 -5.0666,43.57333 -1.0134,1.52 -8.1067,41.04 -7.0933,35.97333 -13.17332,35.97333 -27.36,-1.52 -47.12,-3.04 -48.13333,-3.54666 -52.69333,-7.6 -4.05333,-4.56 -8.61333,-50.16 -5.57333,-49.65333 -6.58667,-52.69333 -1.52,-6.58667 -3.54666,-47.12 -1.01334,-22.29333 -2.53334,-44.08 -1.01333,-9.62666 -1.01333,-78.02666 v -30.4 q 0,-0.50667 6.58667,-5.57333 7.09333,-5.57334 7.09333,-6.08 0,-0.50667 2.02667,-1.52 2.02666,-1.01334 2.02666,-1.52 0,-1.01334 2.53334,-2.53334 2.53333,-1.52 2.53333,-2.02666 0.50666,-7.09334 26.85333,-18.24 28.37333,-12.16 31.41333,-15.70667 5.06667,-6.08 31.41334,-10.64 20.77328,-4.05333 32.93328,-4.05333 3.5467,0 27.8667,59.28 24.8267,59.27999 29.3867,61.81333 13.1733,7.09333 21.7866,15.70666 6.08,-12.16 14.6934,-21.28 2.5333,3.04 11.1466,-12.66666 8.6134,-15.70667 9.12,-15.70667 0.5067,0 11.6534,-27.86666 11.1466,-27.86667 14.1866,-31.41334 3.04,-3.54666 28.3734,-8.10666 25.3333,-5.06667 27.8666,-7.09334 3.04,-2.53333 20.2667,-5.06666 17.7333,-2.53334 18.7467,-3.04 9.6266,-4.56 54.72,-4.56 10.1333,0 22.2933,61.81333 14.1867,71.94666 15.7067,76 4.56,9.12 7.6,77.01333 2.5333,53.2 2.5333,80.05333 z m -74.48,3.04 v 1.01333 z m 461.5737,-21.28 q 0,28.88 -14.6934,51.68 -19.2533,28.88 -62.32,39.52 -28.3733,7.09333 -55.7333,8.61333 -27.36,1.52 -63.3333,4.05334 -18.24,0.50666 -41.5467,1.01333 -5.0666,0 -26.3466,0 h -8.1067 q -30.4,0 -37.4933,-0.50667 -7.6,0 -16.72,0 -9.12,-0.50666 -20.2667,-1.01333 -1.0133,-1.52 -2.0267,-2.53333 -1.0133,-3.04 -3.5466,-6.58667 -2.5334,-5.57333 -7.0934,-11.65333 -3.5466,-1.01334 -9.12,-16.72 -5.5733,-15.70667 -7.6,-17.22667 -1.0133,-3.54667 -3.04,-8.10667 -0.5066,-2.53333 -2.0266,-6.08 -1.0134,-4.05333 -2.5334,-9.62666 -0.5066,-2.53334 -1.52,-6.08 -1.0133,-9.62667 -4.56,-25.33334 -1.0133,-12.16 -3.5466,-28.37333 0,-6.08 -1.52,-19.25333 0,-2.02667 -0.5067,-5.06667 0,-7.6 -1.0133,-18.24 0,-8.10666 -0.5067,-18.74666 v -2.02667 q 0,-3.54667 -0.5067,-8.61333 v -42.56 q 0,-20.77334 0,-26.85334 0.5067,-15.2 1.52,-34.95999 0.5067,-11.14667 2.0267,-25.33334 0.5067,-3.04 1.0133,-7.09333 3.5467,-1.52 7.6,-3.54667 4.0534,-2.02666 8.6134,-5.06666 1.52,-2.53334 17.2266,-6.58667 15.7067,-4.56 17.2267,-5.57333 1.52,-1.52 21.7867,-3.54667 8.6133,-1.01333 11.1466,-2.02667 11.1467,-0.50666 26.3467,-2.02666 13.1733,-1.01334 30.4,-2.02667 15.2,-1.01333 34.4533,-2.02667 13.1734,-1.01333 41.5467,-0.50666 l 34.96,0.50666 q 50.6666,2.02667 79.04,16.72 20.2666,10.13334 30.4,33.44 0.5066,1.01334 9.6266,22.29333 7.0934,16.21334 7.6,28.37334 v 1.52 q 0.5067,12.66666 -5.0666,24.82666 -5.0667,6.58667 -15.7067,19.76 -14.6933,17.22667 -35.4667,27.36 v 0.50667 1.01333 q 5.5734,8.61334 19.76,16.72 18.7467,9.62667 23.3067,13.68 18.24,16.72 25.3333,46.61333 2.5334,11.65334 2.5334,23.30667 z m -156.56,-154.53333 q 0,-10.64 -9.6267,-17.22667 l -1.0133,-0.50666 q -14.6933,-6.08 -22.8,-6.08 -30.4,0 -35.4667,3.54666 -3.5466,0 -7.0933,1.01334 -5.5733,1.01333 -12.16,2.02666 0,22.8 4.0533,24.82667 1.0134,8.10667 4.0534,16.21333 2.5333,1.01334 18.7466,1.01334 12.16,0 13.68,0 10.64,-1.01334 23.3067,-2.53334 6.5867,-1.52 17.2267,-7.09333 7.0933,-6.58667 7.0933,-15.2 z m -0.5067,132.24 q -2.5333,-18.24 -27.8666,-20.26667 h -1.52 -2.0267 q -26.3467,-1.01333 -31.4133,2.02667 -1.0134,0 -12.16,2.02667 -10.64,1.51999 -10.64,3.03999 0,13.68 2.0266,15.2 l 0.5067,1.52 v 0.50667 l 0.5067,1.01333 v 1.01334 q 0.5066,0.50666 1.0133,1.52 0.5067,0.50666 3.04,11.14666 3.04,10.13334 4.56,10.13334 37.4933,0 46.6133,-2.02667 19.76,-4.56 23.8134,-11.65333 5.0666,-4.56 3.5466,-15.2 z m 476.7731,99.30666 q 0,5.57334 -41.04,13.17334 -47.6267,8.10666 -49.6534,9.12 -15.7066,6.58666 -146.9333,6.58666 -7.6,0 -20.2667,-28.88 -12.16,-29.38666 -17.2266,-30.4 -9.12,-1.52 -19.76,-31.41333 -11.6534,-33.94667 -12.16,-33.94667 -3.04,-4.05333 -7.0934,-33.94666 -4.56,-34.96 -5.5733,-37.49333 -4.56,-17.22667 -4.56,-109.44 0,-6.58667 24.8267,-18.24 24.8266,-12.16 25.3333,-17.22667 2.0267,-8.61333 26.8533,-18.24 14.1867,-5.06666 28.3734,-10.13333 4.56,-3.54667 29.8933,-6.58667 15.7067,-2.02666 31.4133,-3.54666 9.6267,-1.52 90.1867,-1.52 8.1067,0 17.7333,16.21333 10.1334,15.70667 11.1467,15.70667 4.56,0.50666 11.1467,18.24 6.5866,17.73333 9.12,19.25333 3.04,1.01333 6.08,3.04 0,2.02666 -15.7067,8.10666 -15.2,6.08 -15.2,10.13334 0,5.57333 -28.88,12.66666 -32.9333,7.6 -34.4533,8.61334 v 23.30666 q -0.5067,0.50667 -0.5067,1.01334 0,1.52 7.6,3.04 4.56,1.01333 8.6133,1.52 7.0934,0 5.0667,-0.50667 3.5467,-0.50667 6.08,-1.52 2.0267,0.50667 1.0133,1.01333 -0.5066,0.50667 1.52,1.52 2.0267,0.50667 2.0267,1.01334 0,0 12.16,5.06666 0.5067,0 4.0533,5.57334 3.5467,5.57333 6.08,5.57333 0.5067,0 5.5734,5.57333 5.0666,5.06667 5.5733,5.06667 3.5467,0 8.6133,8.61333 5.5734,8.61334 6.5867,9.12 6.5867,3.04 6.5867,27.36 0,2.53334 -12.16,7.09334 -12.16,4.05333 -13.1734,5.57333 -4.0533,5.57333 -29.8933,5.57333 h -57.76 q -21.7867,0 -26.3467,3.04 0.5067,13.17333 2.5334,27.36 1.52,0.50667 13.1733,0.50667 11.1467,0 13.1733,0 8.6134,-1.01334 28.88,-1.01334 16.72,0 46.1067,2.02667 38,2.53333 43.0667,6.08 5.0666,3.54667 9.12,39.01333 3.04,27.36 3.04,42.56 z m 400.773,-4.05333 q 0,6.08 -28.3733,14.18667 -31.4134,8.61333 -33.44,10.13333 -8.6134,7.09333 -66.88,7.09333 -3.5467,0 -19.2534,-15.2 -17.2266,-16.21333 -19.76,-17.22666 -7.0933,-8.10667 -16.72,-18.24 -7.0933,-8.61334 -17.2266,-20.26667 -12.6667,-17.22667 -27.8667,-36.98667 -2.0267,2.02667 -5.5733,6.08 -2.0267,9.12 -4.0534,18.74667 -0.5066,3.54667 -1.52,8.10667 -0.5066,4.05333 -2.0266,9.12 -0.5067,1.01333 -1.52,8.10666 -1.0134,7.09334 -2.5334,13.68 -1.52,6.58667 -3.5466,12.66667 -3.04,13.68 -9.6267,28.37333 -4.56,1.01334 -24.32,1.01334 -25.84,0 -31.4133,-2.02667 -4.56,-0.50667 -10.1334,-1.01333 -5.0666,-1.01334 -11.1466,-2.53334 -1.52,-1.01333 -25.84,-6.58666 -22.2934,-5.57334 -24.8267,-9.62667 -1.52,-12.16 -4.56,-27.86667 -1.0133,-7.6 -2.5333,-19.25333 -1.52,-12.16 -3.04,-26.85333 -0.5067,-4.05334 -1.0134,-12.16 -0.5066,-5.57334 -1.0133,-12.66667 v -1.52 q -0.5067,-3.04 -0.5067,-6.58667 0,-1.52 -0.5066,-8.61333 0,-5.06666 -0.5067,-11.65333 0,-5.57333 0,-29.38667 v -15.70666 q 0,-22.29334 0.5067,-26.34667 0,-6.58667 0.5066,-14.18667 -0.5066,-14.18666 2.5334,-42.05333 1.0133,-14.69333 3.5466,-32.93333 0.5067,-4.56 1.52,-10.64 1.0134,-9.62667 4.0534,-21.78667 1.52,-9.62666 5.0666,-20.77333 5.0667,-1.01333 11.6534,-3.54667 5.0666,-0.50666 11.6533,-2.02666 6.5867,-1.52 15.7067,-3.04 l 5.0666,-1.01334 q 11.6534,-1.01333 13.68,-2.02666 6.08,-2.02667 22.2934,-2.53334 20.2666,-0.50666 23.3066,-1.01333 7.0934,-1.01333 43.0667,-1.01333 h 77.52 q 79.04,0 113.4933,34.45333 7.0934,9.62667 12.6667,18.74667 13.68,21.78666 15.7067,35.46666 2.5333,13.17333 2.5333,24.32 0,23.81333 -11.1467,45.6 -11.1466,21.28 -33.9466,31.92 -11.1467,5.57333 -27.36,10.13333 l -2.5334,0.50667 q 0.5067,1.01333 0.5067,2.53333 1.52,6.08 1.52,13.17334 2.0267,2.53333 5.5733,6.58666 2.0267,2.02667 10.1334,12.16 l 12.16,15.70667 q 16.2133,20.77333 21.28,29.89333 16.72,24.82667 33.9466,57.25333 0,1.01334 2.5334,5.57334 2.5333,4.56 2.5333,5.57333 z M 2272.9267,461.48102 q -4.0534,-22.8 -34.4534,-22.8 -26.8533,0 -29.8933,2.53333 -0.5067,0.50667 -6.5867,2.02667 -5.5733,1.01333 -5.5733,1.52 v 0.50667 q 0,22.8 4.0533,24.82666 1.52,0.50667 4.0534,13.68 2.5333,13.17334 4.0533,13.17334 28.3733,0 30.9067,0 7.6,0 14.6933,-2.02667 l 2.5333,-0.50667 q 4.56,-1.52 7.6,-3.04 l 1.52,-1.01333 q 11.6534,-7.09333 7.0934,-28.88 z m 652.0801,153.01333 q 0,1.01333 -7.6,2.53333 -7.0934,1.52 -7.0934,2.53334 -4.0533,1.01333 -8.1066,2.53333 0,1.52 -26.3467,7.6 -25.84,5.57333 -25.84,10.13333 0,-7.6 0.5067,-21.28 -1.0134,-3.54666 -3.04,-38 -1.0134,-26.85333 -5.5734,-26.85333 -1.0133,0 -1.52,0.50667 l -0.5066,0.50667 q -2.5334,2.53333 -27.36,55.22666 -22.8,47.62667 -28.3734,47.62667 -25.84,42.56 -30.4,40.53333 -13.68,-2.02667 -28.88,-7.6 -2.0266,-2.02667 -17.7333,-7.09333 -15.2,-5.06667 -16.72,-7.6 -1.52,-3.04 -8.6133,-20.26667 -6.08,-15.70667 -6.5867,-15.70667 0,0 -6.08,-9.12 -5.5733,-9.62666 -8.6133,-9.62666 -0.5067,0 -1.52,1.01333 -0.5067,0.50667 -1.0134,0.50667 -2.5333,0 -14.6933,-17.73334 -11.6533,-17.73333 -15.2,-17.73333 -3.04,0 -12.6667,-18.24 -5.5733,-10.64 -10.64,-20.77333 -3.5466,-4.05333 -9.6266,-12.16 -2.0267,4.05333 -5.0667,44.08 -3.04,40.02666 -5.0667,43.57333 -1.0133,1.52 -8.1066,41.04 -7.0934,35.97333 -13.1734,35.97333 -27.36,-1.52 -47.12,-3.04 -48.1333,-3.54666 -52.6933,-7.6 -4.0533,-4.56 -8.6133,-50.16 -5.5734,-49.65333 -6.5867,-52.69333 -1.52,-6.58667 -3.5467,-47.12 -1.0133,-22.29333 -2.5333,-44.08 -1.0133,-9.62666 -1.0133,-78.02666 v -30.4 q 0,-0.50667 6.5866,-5.57333 7.0934,-5.57334 7.0934,-6.08 0,-0.50667 2.0266,-1.52 2.0267,-1.01334 2.0267,-1.52 0,-1.01334 2.5333,-2.53334 2.5334,-1.52 2.5334,-2.02666 0.5066,-7.09334 26.8533,-18.24 28.3733,-12.16 31.4133,-15.70667 5.0667,-6.08 31.4134,-10.64 20.7733,-4.05333 32.9333,-4.05333 3.5467,0 27.8667,59.28 24.8266,59.27999 29.3866,61.81333 13.1734,7.09333 21.7867,15.70666 6.08,-12.16 14.6933,-21.28 2.5334,3.04 11.1467,-12.66666 8.6133,-15.70667 9.12,-15.70667 0.5067,0 11.6533,-27.86666 11.1467,-27.86667 14.1867,-31.41334 3.04,-3.54666 28.3733,-8.10666 25.3334,-5.06667 27.8667,-7.09334 3.04,-2.53333 20.2667,-5.06666 17.7333,-2.53334 18.7466,-3.04 9.6267,-4.56 54.72,-4.56 10.1334,0 22.2934,61.81333 14.1866,71.94666 15.7066,76 4.56,9.12 7.6,77.01333 2.5334,53.2 2.5334,80.05333 z m -74.48,3.04 v 1.01333 z m 479.8135,43.57333 q 0,6.58667 -24.8266,15.70667 -26.8534,10.13333 -28.88,12.16 -3.5467,4.56 -29.8934,8.10667 -20.7733,2.53333 -32.9333,2.53333 -2.5333,0 -11.1467,-17.73333 -8.6133,-18.24 -11.1466,-19.76 -15.7067,-2.53334 -34.96,-8.61334 -2.0267,-2.02666 -20.2667,-7.6 -17.7333,-5.57333 -19.76,-9.12 -3.04,-5.57333 -17.7333,-5.57333 -10.64,0 -24.8267,17.73333 -7.0933,9.12 -14.1867,18.24 -6.08,1.52 -11.6533,3.04 -11.1467,3.54667 -13.68,7.6 -2.0267,3.54667 -23.3067,9.12 -23.8133,5.57334 -26.8533,7.6 -10.1333,6.58667 -51.68,6.58667 -5.0667,0 -6.5867,-24.82667 -1.52,-27.86666 -3.5466,-30.4 -2.0267,-2.53333 -2.0267,-11.14666 0,-11.14667 3.5467,-40.02667 3.5466,-28.88 3.5466,-32.42667 0,-8.10666 10.1334,-46.10666 9.12,-34.45333 13.68,-48.13333 13.68,-43.06667 33.44,-97.78667 3.5466,-5.57333 26.3466,-12.66666 23.3067,-7.6 23.8134,-8.61334 3.5466,-4.56 29.8933,-10.64 28.88,-7.09333 30.9067,-8.10666 6.08,-3.54667 38.5066,-6.08 25.84,-2.53334 40.0267,-2.53334 8.1067,0 26.3467,28.37334 20.2666,31.41333 23.8133,33.94666 3.5467,2.53334 21.7867,43.57333 19.2533,44.58667 25.84,53.2 4.0533,5.57334 17.2266,42.56 15.2,43.06667 16.2134,45.6 5.5733,11.65333 15.2,48.13333 9.6266,36.48 9.6266,44.08 z M 3135.2737,495.93435 q 1.0133,-1.01333 0,-14.18666 -1.52,-16.21334 -1.52,-14.18667 0,-2.53333 -3.5467,-14.18667 -3.04,-11.65333 -4.0533,-12.16 -1.0134,-0.50666 -6.5867,-13.68 -5.5733,-13.68 -7.0933,-13.68 -6.5867,0 -9.6267,4.05334 -10.64,47.62666 -22.2933,97.78666 0,1.52 12.16,4.05334 12.6666,2.02666 13.1733,2.02666 3.5467,2.02667 26.8533,2.02667 0,0 1.0134,-23.30667 0.5066,-4.05333 1.52,-4.56 z m 594.3203,127.68 q 0,11.14667 -45.6,27.86667 -47.6267,17.22666 -50.16,22.29333 -1.0134,2.53333 -3.5467,2.53333 -6.5867,0 -35.9733,-34.96 -28.88,-35.46666 -36.48,-35.46666 -3.5467,0 -18.7467,-21.28 -15.2,-21.78667 -17.7333,-22.8 -10.1334,-4.05333 -14.6934,-8.61333 -3.5466,-3.54667 -7.0933,20.26666 -3.04,23.81333 -4.0533,21.78667 -0.5067,-0.50667 -1.0134,-0.50667 -2.5333,0 -5.5733,25.84 0,0 -1.52,23.81333 -1.0133,23.81334 -3.04,29.38667 -2.0267,5.57333 -36.9867,14.18667 -20.7733,5.06666 -42.0533,10.13333 -6.5867,2.53333 -34.4533,2.53333 -8.1067,0 -17.7334,-42.05333 -0.5066,-3.04 -9.12,-51.17333 -6.08,-34.96 -10.64,-44.58667 -4.0533,-9.62666 -7.0933,-78.02666 -2.5333,-53.2 -2.5333,-80.05334 0,-11.65333 50.16,-29.89333 52.1866,-18.74666 55.2266,-25.33333 2.0267,-4.56 6.08,-4.56 7.0934,0 29.8934,20.26667 22.8,20.26666 29.8933,20.26666 7.6,0 29.8933,32.93333 14.1867,21.28 28.3734,43.06667 l 13.68,17.22667 q 1.0133,-3.04 2.0266,-69.92 1.52,-67.38667 4.0534,-70.93333 6.08,-8.61334 53.7066,-14.69334 36.48,-5.06666 54.2134,-5.06666 10.1333,0 22.2933,61.30666 14.6933,73.46667 16.2133,77.01333 4.0534,10.64 7.6,82.58667 2.5334,55.73333 2.5334,84.61333 z"
     id="text1"
     aria-label="BOMBERMAN" />
</svg>
