<?xml version="1.0" encoding="UTF-8" standalone="no"?>
<svg
   width="1059.2145pt"
   height="408.85388pt"
   viewBox="0 0 1059.2145 408.85388"
   version="1.1"
   id="svg117"
   sodipodi:docname="singe.svg"
   inkscape:version="1.3.2 (091e20ef0f, 2023-11-25, custom)"
   xmlns:inkscape="http://www.inkscape.org/namespaces/inkscape"
   xmlns:sodipodi="http://sodipodi.sourceforge.net/DTD/sodipodi-0.dtd"
   xmlns:xlink="http://www.w3.org/1999/xlink"
   xmlns="http://www.w3.org/2000/svg"
   xmlns:svg="http://www.w3.org/2000/svg">
  <sodipodi:namedview
     id="namedview1"
     pagecolor="#ffffff"
     bordercolor="#000000"
     borderopacity="0.25"
     inkscape:showpageshadow="2"
     inkscape:pageopacity="0.0"
     inkscape:pagecheckerboard="0"
     inkscape:deskcolor="#d1d1d1"
     inkscape:document-units="pt"
     inkscape:zoom="0.83198447"
     inkscape:cx="706.14299"
     inkscape:cy="272.24066"
     inkscape:window-width="1920"
     inkscape:window-height="1011"
     inkscape:window-x="0"
     inkscape:window-y="0"
     inkscape:window-maximized="1"
     inkscape:current-layer="g1" />
  <defs
     id="defs117">
    <linearGradient
       id="linearGradient117">
      <stop
         style="stop-color:#258103;stop-opacity:1;"
         offset="0.32941177"
         id="stop117" />
      <stop
         style="stop-color:#e6f500;stop-opacity:1;"
         offset="1"
         id="stop118" />
    </linearGradient>
    <linearGradient
       xlink:href="#linearGradient117"
       id="linearGradient120"
       x1="172.13681"
       y1="98.837204"
       x2="172.22247"
       y2="109.11681"
       gradientUnits="userSpaceOnUse"
       gradientTransform="matrix(39.240181,0,0,32.622088,-6270.5974,-3174.7434)" />
    <linearGradient
       xlink:href="#linearGradient117"
       id="linearGradient132"
       gradientUnits="userSpaceOnUse"
       x1="172.13681"
       y1="98.837204"
       x2="172.22247"
       y2="109.11681"
       gradientTransform="matrix(39.240181,0,0,32.622088,-6270.5974,-3174.7434)" />
    <linearGradient
       xlink:href="#linearGradient117"
       id="linearGradient133"
       gradientUnits="userSpaceOnUse"
       x1="172.13681"
       y1="98.837204"
       x2="172.22247"
       y2="109.11681"
       gradientTransform="matrix(39.240181,0,0,32.622088,-6270.5974,-3174.7434)" />
    <linearGradient
       xlink:href="#linearGradient117"
       id="linearGradient134"
       gradientUnits="userSpaceOnUse"
       x1="172.13681"
       y1="98.837204"
       x2="172.22247"
       y2="109.11681"
       gradientTransform="matrix(39.240181,0,0,32.622088,-6270.5974,-3174.7434)" />
    <linearGradient
       xlink:href="#linearGradient117"
       id="linearGradient135"
       gradientUnits="userSpaceOnUse"
       x1="172.13681"
       y1="98.837204"
       x2="172.22247"
       y2="109.11681"
       gradientTransform="matrix(39.240181,0,0,32.622088,-6270.5974,-3174.7434)" />
  </defs>
  <g
     id="g1"
     transform="translate(8.3675766e-6,2.5042803e-4)">
    <path
       d="m 203.02265,308.95528 h -3.76706 v 30.14283 h -4.23794 l -4.70883,-27.79404 q -2.82529,0 -9.41765,-0.78293 -6.59235,-0.78293 -8.94676,-1.56586 -0.94177,0 -3.76706,-0.39147 -2.8253,-0.78293 -3.29618,-1.1744 -1.88353,-0.78293 -6.12148,-2.34878 -3.76706,-1.56587 -4.70882,-2.3488 l -3.29618,-2.74025 q -1.41265,-1.1744 -2.82529,-1.95733 -0.94177,-0.78293 -1.41265,-1.1744 0,-0.78293 -2.35441,-3.13172 -1.88353,-2.74026 -2.8253,-3.52319 -0.94176,-1.1744 -2.82529,-4.30612 -1.41265,-3.52319 -1.41265,-4.30612 -0.94177,-0.78292 -2.35441,-3.91465 -0.94177,-3.13172 -0.94177,-3.91465 v -13.30983 -10.56956 q 0,-1.56586 2.35441,-5.48051 2.35442,-3.91466 3.29618,-5.08906 -1.41265,0 -5.17971,-0.39146 -3.76706,-0.39146 -7.53412,-0.39146 -3.76706,-0.39147 -7.53412,-0.78293 -3.76706,-0.39147 -5.17971,-0.39147 -0.94176,0 -2.82529,-0.78293 -1.88353,-0.78293 -2.8253,-1.56587 -0.94176,0 -2.82529,-1.56586 -1.41265,-1.95732 -2.35441,-1.95732 0,-0.39147 -0.94177,-2.74026 -0.47088,-1.1744 -0.94176,-1.95733 v -5.08905 -5.48051 q 0,-0.39147 0.94176,-3.91465 0.94177,-3.52319 0.94177,-4.69759 0.94176,-1.56586 2.35441,-5.08905 1.88353,-3.91465 3.29618,-7.8293 1.88353,-4.30612 3.29617,-7.82931 1.41265,-3.52319 1.88353,-4.69759 0.47089,-1.95733 4.70883,-7.43784 4.23794,-5.87198 5.65059,-9.39516 0.94176,-1.56587 3.29618,-6.26345 2.35441,-4.69759 5.1797,-10.17811 2.8253,-5.48051 5.17971,-10.17809 2.35442,-5.08905 3.29618,-7.04638 2.35441,-4.69758 6.12147,-9.0037 4.23795,-4.69758 8.47589,-9.0037 4.23794,-4.69759 8.005,-9.78664 3.76706,-5.089049 5.65059,-10.961029 0.47089,-0.39146 1.88353,-2.34879 1.41265,-1.95733 2.8253,-3.91465 1.88353,-2.3488 3.29618,-4.30612 1.88353,-2.34879 2.82529,-3.523191 0,-0.391465 1.41265,-2.740257 1.88353,-2.740258 2.82529,-4.306119 1.41265,-1.174396 4.23795,-3.914654 3.29617,-3.131722 4.23794,-3.523188 0.94176,-1.565861 4.70882,-4.697584 4.23795,-3.523188 5.17971,-4.306119 0.47088,0 3.29618,-1.957327 2.8253,-1.957326 3.76706,-2.740257 0.47088,0 3.29618,-0.782931 0.94176,-0.391465 2.35441,-0.78293 h 8.94676 8.47589 l 5.65059,4.697584 q 0.94177,0.391465 2.35441,2.740257 1.88354,2.348792 2.8253,3.131723 0,0.782931 1.41265,4.697584 1.88353,3.914654 2.82529,5.871981 0.94177,1.174396 3.29618,6.263445 2.35442,4.697583 2.35442,5.871983 0,0.78293 0.47087,3.13172 0.94177,1.95733 1.88354,4.30612 0.94176,2.34879 1.41264,4.69758 0.94177,1.95733 0.94177,3.13173 0,0.78293 0.94177,4.306119 1.41265,3.13172 1.41265,4.69758 0.47087,2.34879 1.88352,6.65491 1.41265,3.91465 2.8253,8.22077 1.41264,4.30612 2.3544,7.82931 0.94178,3.52319 1.41265,4.30612 0,1.95733 1.88354,5.08905 2.35441,2.74026 2.35441,5.48051 0.94177,2.74026 1.88353,7.82931 1.41265,4.69758 1.41265,5.48052 v 9.39516 4.69759 q 0,0.78293 -1.41265,2.34879 -0.94176,1.1744 -1.88353,1.95733 -0.94177,1.1744 -3.76706,4.69758 -2.8253,3.52319 -3.29618,3.91465 -0.94176,0.78293 -5.17971,3.52319 -3.76706,2.3488 -4.70882,3.13172 -0.94177,0 -4.23794,0.78293 -2.8253,0.78294 -4.23795,0.78294 h -0.94176 -1.41265 q -0.47088,0 -2.35442,-0.78294 -1.88352,-0.78293 -2.35441,-0.78293 -0.94176,-0.78292 -1.41264,-1.95732 -0.94177,-2.34879 -0.94177,-2.74026 -0.94176,-0.78293 -1.88353,-3.13172 -0.47088,-2.34879 -1.41265,-2.74026 0,-1.56586 -1.41265,-4.69758 -0.94176,-3.52319 -0.94176,-4.30612 0,-1.1744 -0.47088,-3.91466 0,-3.13172 -0.47088,-6.65491 -0.47089,-3.52318 -0.94177,-6.65491 0,-3.13172 0,-3.91465 -0.94176,-2.34879 -1.41265,-4.30612 -0.47088,-1.95733 -0.94176,-3.52319 -0.47089,-1.95732 -0.47089,-2.74025 -0.94176,-3.91466 -4.23793,-9.39518 -2.8253,-5.48051 -3.76707,-7.43784 -0.47088,-1.56586 -2.35441,-7.04637 -1.88353,-5.87198 -2.35441,-7.82931 -0.94177,-1.95733 -2.35441,-5.08905 -0.94177,-3.131719 -2.35442,-6.263439 -1.88352,-3.52319 -3.29617,-7.43785 h -2.8253 q 0,1.1744 0,4.69759 0.47088,3.52319 0.47088,7.829309 0,3.91465 0,7.43784 0.47088,3.52319 0.47088,4.69758 0,1.56586 -1.41264,6.26345 -0.94177,4.30611 -1.41265,5.48051 0,-0.78293 -1.41265,-3.52319 -0.94176,-2.74025 -0.94176,-3.52318 -0.47088,-1.1744 -0.94176,-3.52319 -0.47089,-2.74026 -0.94177,-5.48052 0,-3.13172 -0.47088,-5.87198 -0.47089,-2.74026 -0.94176,-3.914649 l -4.23795,8.220769 v 38.75507 l -2.8253,3.52319 -3.76706,-3.52319 v -31.70869 q -0.94176,0.78293 -2.82529,2.74026 -1.41265,1.95732 -3.29618,4.30611 -1.88353,1.95733 -3.29618,3.91466 -1.41264,1.95733 -1.88353,3.13172 -0.47088,0.78293 -2.82529,5.08905 -2.35441,3.91465 -5.17971,9.39517 -2.8253,5.48051 -6.12147,10.96102 -2.8253,5.48052 -4.23795,8.61225 -0.47088,1.56586 -2.35441,3.52318 -1.88353,1.56586 -2.35441,3.13173 -0.94177,2.34879 -2.8253,6.26344 -1.41264,3.91465 -3.29617,7.82931 -1.41265,3.91465 -2.8253,7.43784 -1.41265,3.13173 -1.88353,3.52319 0,0.78293 0.94177,3.91465 1.41264,3.13173 1.41264,4.30612 1.41265,0 5.65059,0.39146 4.70883,0 9.41765,0 5.17971,0 9.41766,0 4.70882,0 7.06323,-0.39146 0.47089,0 2.8253,0 2.35441,-0.39146 5.17971,-0.78293 3.29617,-0.39146 6.12147,-0.39146 2.82529,-0.39147 3.76706,-0.39147 1.88353,-0.39146 5.17971,-0.78293 3.29617,-0.78293 6.59235,-1.1744 3.29617,-0.39146 5.65059,-0.78293 2.35441,-0.39146 2.8253,-0.39146 h 22.13147 18.36443 q 1.41264,0.78293 7.06324,2.34879 6.12146,1.56586 8.47587,2.34879 0.94177,0.78293 4.70883,4.30612 4.23795,3.13172 5.17971,4.69759 0.47088,1.17439 2.35441,4.30611 2.35442,3.13173 2.35442,4.30612 v 10.56957 12.52689 q 0,0.39147 -0.94177,2.74025 -0.94177,2.3488 -0.94177,3.13173 -0.47088,0.78293 -1.41264,2.74025 -0.94177,1.56587 -2.35441,3.5232 -1.41265,1.95732 -2.8253,3.91465 -1.41265,1.95733 -1.88353,3.13172 -0.47088,1.17439 -1.41265,2.34879 -0.94176,0.78293 -1.88353,1.95733 -0.47088,0.78293 -0.94177,1.56586 -1.88352,1.56586 -4.70882,4.69759 -2.82529,2.74025 -3.76705,3.52318 0,0.78293 -1.88354,2.3488 -1.41265,1.1744 -2.35441,1.95732 -0.94177,0.78293 -3.29618,2.34879 -2.35441,1.56587 -5.17971,3.5232 -2.35441,1.56585 -4.70883,3.13171 -1.88352,1.1744 -2.35441,1.56587 -0.94176,0.78293 -4.23794,2.34879 -2.8253,1.56586 -3.76706,2.34879 -0.94176,0 -3.29618,1.56586 -2.35441,1.1744 -5.65058,2.74026 -2.8253,1.17439 -5.65059,2.74026 -2.35442,1.1744 -2.8253,1.56586 -0.47089,0 -1.88353,1.17439 -0.47088,0.39147 -0.47088,0.78293 v 2.3488 3.52318 q 0,1.1744 0.47088,5.48052 0.47088,4.69759 0.47088,9.78664 0.47088,5.08904 0.94176,9.39516 0.47089,4.30613 0.47089,5.08905 v 14.09275 13.70129 q 0,0.78294 -0.47089,2.74026 -0.47088,2.34879 -0.94176,4.69759 0,2.34878 -0.47088,4.30611 -0.47088,2.3488 -0.47088,2.74026 -0.94177,-1.17439 -1.88353,-5.08905 -0.47089,-3.91465 -1.41265,-5.48052 -0.47089,-3.13171 -1.41265,-11.35249 -0.47089,-7.82931 -1.41265,-17.22447 -0.47088,-9.00371 -0.94176,-17.22448 -0.47089,-7.82931 -0.47089,-10.96103 z m -29.19471,-63.41739 q 0,0.78293 0,2.74026 0,1.56586 0.47088,3.52318 0.47088,1.95733 0.94176,4.30613 0,1.56586 1.41265,4.69758 1.88353,2.74026 3.76706,4.30612 0,0.39146 3.76706,3.91465 4.23794,3.52319 6.12147,4.69759 0.47089,0 2.35442,1.1744 1.88353,0.78292 2.35441,0.78292 h 14.12648 11.30117 q 0.47089,0 2.35442,-0.78292 2.35441,-0.78294 4.70882,-1.56587 2.35441,-1.1744 4.70883,-2.34879 2.35441,-1.1744 3.29617,-1.95733 0.94177,-0.39146 2.8253,-1.95732 1.88353,-1.56587 2.82529,-1.95733 0.47089,-1.56586 2.35441,-4.30612 2.35442,-3.13172 2.35442,-4.69758 v -5.08905 -5.48052 q 0,-0.78293 -2.35442,-3.91465 -1.88352,-3.52319 -2.35441,-4.30612 -0.94176,-0.39147 -4.23794,-1.95733 -2.8253,-1.95733 -3.76706,-1.95733 -0.47088,-0.78292 -5.65059,-1.17439 -5.17971,-0.78293 -7.06324,-0.78293 h -6.12147 -6.59235 q -2.35442,0 -6.59236,0.39147 -4.23794,0 -8.94677,0.39146 -4.23794,0 -8.005,0.39147 -3.29618,0.39146 -3.76706,0.78292 -0.94176,0 -2.82529,0.78293 -1.41265,0.39147 -2.35442,0.78293 0,1.56587 -0.94176,5.48052 -0.47088,3.91466 -0.47088,5.08905 z"
       id="text132"
       style="font-size:518.396px;font-family:'a dripping marker';-inkscape-font-specification:'a dripping marker, Normal';white-space:pre;display:inline;fill:#ffffff;stroke:#ababab;stroke-width:0"
       aria-label="S" />
    <path
       d="m 292.4902,312.087 q -0.94177,0 -4.23794,0.78293 -2.8253,0.78293 -3.76706,0.78293 -0.47089,-0.39147 -2.8253,-1.95732 -1.88353,-1.56587 -1.88353,-1.95733 v -24.66232 -24.27085 q 0,-2.74026 0,-13.70129 0.47089,-11.35249 0.94176,-26.61964 0.47089,-15.26715 0.94177,-32.88309 0.94177,-17.61594 1.41265,-32.8831 0.47088,-15.26714 0.94176,-26.61963 0.47089,-11.3525 0.47089,-14.09276 0.94176,-1.17439 3.76706,-5.87198 3.29617,-5.08905 4.23794,-6.26344 0,-0.78294 2.8253,-3.131729 3.29617,-2.74025 4.23794,-3.52319 0.94176,-0.39146 3.76706,-1.95732 2.8253,-1.56586 3.76706,-1.95733 1.41265,-1.1744 2.82529,-1.95733 0.94177,-0.78293 2.35441,-1.17439 h 4.23795 3.29618 q 0.94176,0 1.88352,1.17439 0.94178,1.1744 0.94178,1.95733 0,0.39147 0.94176,2.74026 1.41265,2.34879 1.41265,3.13172 v 4.697589 3.91465 q 0,0.78293 -0.47089,3.52319 -0.47088,2.34879 -0.94176,5.08905 0,2.74025 -0.47089,5.48051 -0.47087,2.34879 -0.47087,3.13172 0,3.52319 -0.47089,16.44155 -0.47089,12.52689 -1.41265,30.14283 -0.47088,17.22448 -1.41265,37.18921 -0.94176,19.57327 -1.88353,37.18921 -0.47088,17.22448 -1.41265,30.14283 -0.47087,12.52689 -0.47087,16.05008 -0.94177,1.56586 -1.88354,3.91465 -0.47088,2.34879 -1.41265,3.13173 -1.41264,1.17439 -2.35441,2.74026 -2.82529,3.13172 -2.82529,3.13172 0,0.78293 -0.94176,2.34879 -0.94178,1.56586 -0.94178,2.34879 0,1.56586 -0.47087,5.48051 -0.47089,4.30613 -0.94177,9.00371 0,4.69758 -0.47088,8.61224 -0.47089,4.30612 -0.47089,5.87198 -0.47088,1.95732 -1.41264,5.48052 -0.47088,3.52318 -0.94177,7.04637 -0.47088,3.91465 -0.94176,7.04637 0,3.13173 0,4.30613 0,0.78292 -1.41265,5.87198 -0.94177,5.08905 -0.94177,6.65491 0,0.39146 -0.94176,3.91465 -0.94176,3.52318 -1.88353,4.69758 0,0.78293 -0.94177,3.13173 -0.94176,2.34879 -0.94176,2.74025 z"
       id="text131"
       style="font-size:518.396px;font-family:'a dripping marker';-inkscape-font-specification:'a dripping marker, Normal';white-space:pre;display:inline;fill:#ffffff;stroke:#ababab;stroke-width:0"
       aria-label="I" />
    <path
       d="m 444.11459,303.86623 q 0.47089,-0.78293 -1.41264,-1.1744 -1.41265,-0.78293 -2.8253,-1.95733 l -5.65059,40.32094 -3.29617,1.56586 q -0.94178,-0.78293 -0.94178,-3.52319 0,-2.34879 -0.94176,-2.74026 0,-1.17439 0,-5.87198 0.47089,-4.69759 0.47089,-10.1781 0.47087,-5.08905 0.94176,-9.78663 0.47089,-4.69758 0.47089,-5.87198 0,-1.1744 0,-4.30612 0.47087,-3.13172 0.47087,-6.26345 0.47089,-3.13172 0.47089,-5.87198 0,-2.74025 0,-3.52319 -0.47089,-0.39146 -0.94176,-1.17439 -0.94178,-1.56586 -0.94178,-2.34879 -0.94176,-1.1744 -3.76705,-4.69759 -2.35441,-3.52318 -3.29618,-4.69758 -0.94177,-1.1744 -2.82529,-3.52319 -1.41265,-2.74026 -3.29618,-5.48051 -1.88353,-2.74026 -3.76706,-4.69759 -1.41265,-2.34879 -1.88354,-3.13172 -1.41264,-0.78293 -5.1797,-3.91465 -3.29618,-3.52319 -7.06324,-7.04638 -3.29617,-3.91466 -6.59236,-7.43784 -2.82529,-3.52319 -4.23794,-5.08905 -0.47088,0.78293 -0.94176,2.74025 0,1.95733 0,2.3488 -0.47089,1.1744 -0.47089,3.52318 0,1.1744 -0.47087,1.95733 0,1.95733 0,9.39517 0.47087,7.04637 0.47087,15.26715 0.47089,8.22078 0.47089,15.65861 0.47088,7.04638 0.47088,9.00371 -0.47088,0.39146 -0.47088,1.95733 0,0.78292 -0.47089,1.56585 v 3.52319 q -0.94176,0.39147 -3.76706,3.52319 -2.35441,2.74026 -3.29617,3.13173 -0.94177,0.78293 -3.29618,2.34878 -1.88353,1.56587 -4.70883,3.5232 -2.8253,1.56585 -5.65058,3.13171 -2.35442,1.95733 -3.29618,2.74027 l -4.70883,1.56586 q -0.94177,0 -2.8253,-0.39147 -1.88352,0 -2.82529,0 -0.94177,0 -1.88353,-0.39146 -0.47089,0 -1.41265,0 -0.94176,0 -1.41265,-0.39147 l -1.88353,-1.95733 q 0,-0.39146 0,-2.34879 0,-1.95732 0,-4.30612 0,-2.34879 -0.47088,-4.69758 -0.47088,-2.74026 -0.94177,-3.91465 0,-0.39147 0,-2.74026 0,-2.74026 0,-5.48052 0,-2.74026 0,-5.08905 0.47089,-2.74026 0.47089,-3.52319 0,-1.17439 0,-3.13172 0,-2.34879 0,-4.69758 0,-2.74026 -0.47089,-4.69759 0,-2.34879 -0.47087,-3.13172 0,-1.95733 -0.47089,-5.87198 0,-3.91465 0,-7.82931 0,-4.30611 0,-7.43784 0,-3.52319 0,-4.30612 0,-2.34879 -0.94176,-7.04638 -0.47089,-5.08904 -0.94177,-10.17809 -0.47088,-5.08905 -1.41264,-9.39517 -0.47089,-4.30612 -0.47089,-5.48052 0,-1.56586 -0.47088,-5.48051 -0.47088,-3.91465 -1.41265,-7.82931 -0.47088,-4.30612 -0.94176,-7.8293 -0.47089,-3.91466 -0.94177,-5.08905 0,-0.78293 -0.94177,-3.5232 -0.47087,-3.13171 -1.41265,-6.26344 -0.47087,-3.13172 -1.41264,-6.26345 -0.47088,-3.13172 -0.47088,-4.30611 1.88352,0 2.35441,-1.1744 0.47089,-0.39147 0.47089,-1.95733 0.47087,-1.56586 0.47087,-3.13172 0.47089,-1.95733 0.47089,-3.52319 0,-1.56586 0,-1.95732 0.94176,0 2.82529,-2.3488 2.35441,-2.34879 3.29618,-2.74025 3.76706,-2.3488 6.12147,-4.30613 0.47089,0 3.76706,-1.17439 3.29618,-1.56586 4.23795,-2.34879 0.47088,-0.39147 1.41264,-0.39147 0.94177,0 1.88354,-0.39146 1.41265,0 2.35441,-0.39147 0.47088,0.39147 1.41265,0.39147 0.94176,0 1.41264,0.39146 0.47089,0 1.41265,0 h 2.8253 q 0.94176,0.39147 2.35441,1.95733 1.41265,1.56586 2.35441,2.74025 0,0.39147 0.94177,1.95733 0.94176,1.56587 1.88352,3.52319 1.41265,1.56586 1.88354,3.52319 0.94176,1.56586 0.94176,1.95733 0.94177,1.95732 3.76706,5.08905 2.82529,3.13172 2.82529,3.91465 0.47089,0.78293 3.29619,3.91465 2.82529,2.74026 6.12146,6.26345 3.76707,3.13172 6.59237,6.65491 3.29617,3.13173 4.70882,5.08905 2.82529,2.34879 9.41765,9.0037 6.59235,6.65492 13.65559,14.48422 7.53413,7.43784 14.12648,14.48422 6.59236,6.65491 9.41765,9.39517 v -1.1744 l 0.47088,-0.78293 q 0,-1.1744 -0.47088,-3.91465 -0.47088,-3.13173 -0.94176,-6.26344 -0.47089,-3.13173 -0.94177,-5.87198 -0.47088,-2.74027 -0.47088,-3.5232 0,-2.74025 -0.94177,-12.52689 -0.94176,-9.78663 -1.88352,-21.13912 -0.94178,-11.74396 -1.88354,-21.5306 -0.94176,-9.78663 -1.41265,-12.5269 0,-1.95732 -0.47088,-3.52318 -0.47088,-1.1744 -0.47088,-2.74026 0,0 -3.76706,-0.78293 -1.88353,-0.39146 -3.29618,-1.17439 -3.29618,-0.78293 -2.35441,-3.5232 v -0.78293 q 0,-1.56585 0,-1.56585 v -2.3488 q 0,-0.78293 0.47088,-1.1744 0.47088,-0.78293 1.88353,-2.74025 1.41265,-2.34879 2.35441,-3.13172 0,-0.78293 1.41265,-1.95733 1.41265,-1.1744 1.41265,-1.95733 0.94176,-1.17439 2.82529,-3.52319 2.35441,-2.34879 2.8253,-1.95732 1.41265,-1.95733 5.65059,-4.30612 4.23795,-2.34879 6.59236,-3.52319 1.41264,-0.78293 3.29618,-1.56586 3.76706,-1.565859 4.23793,-1.565859 0.94177,-0.39147 2.8253,-1.1744 1.88353,-0.78293 2.82529,-0.39146 h 0.94178 q 0.47087,0 0.94176,0.39146 0.47088,0 1.41265,0 h 2.35441 1.88353 q 0.94176,0.39147 2.35441,2.348789 1.41265,1.95733 1.88353,2.74026 0,1.1744 0.47088,2.74026 0.94177,3.13172 0.94177,3.52319 0,0.78293 0.47088,5.08905 0.94177,3.91465 0.47088,5.87198 0,1.56586 0.47089,8.61224 0.94176,6.65491 1.41265,14.87568 0.47087,8.22077 0.94176,15.26715 0.47088,7.04637 0.47088,8.61223 0.47088,1.95733 0.94177,5.48052 0.47087,3.13172 0.47087,6.65491 0.47089,3.52319 0.47089,6.26344 0.47089,2.3488 0.47089,2.74027 0.94176,5.87198 2.35441,17.61594 1.88353,11.74396 4.23794,26.61964 2.35441,14.87568 4.70882,31.31722 2.8253,16.05009 5.17972,30.92577 2.35441,14.48422 4.23794,26.22818 1.88352,11.74396 2.82529,17.22447 l -0.47088,1.95733 q 0,1.56587 -0.47089,2.74026 0,0.78293 -2.82529,3.52319 -2.35441,2.74025 -2.8253,3.52318 -0.47087,0.39147 -2.82529,1.56587 -1.88353,1.56586 -4.23794,3.13172 -2.35442,1.56586 -4.70883,2.74026 -1.88353,1.56586 -2.35441,1.95733 -0.94177,0.78293 -5.17971,1.56585 -3.76706,1.1744 -5.65059,1.95733 -0.94177,0 -1.88353,-0.39147 -0.47089,0 -0.94176,0 l -2.35442,-0.39146 q -0.94176,-0.78293 -3.29617,-3.52319 -1.88354,-2.74026 -2.8253,-3.52319 -1.41265,-1.56585 -4.23794,-6.65491 -2.35441,-4.69758 -5.17971,-10.1781 -2.8253,-5.48051 -5.65059,-10.56956 -2.35441,-4.69758 -3.76706,-6.65491 l -4.23794,-0.39147 -7.06324,46.58438 -3.29618,5.48052 q 0,-1.1744 0,-4.69759 0,-3.13172 0,-6.65491 0.47088,-3.52319 0.47088,-7.04638 0,-3.13172 -0.47088,-4.30612 0.47088,-2.74025 1.41265,-9.0037 0.94176,-5.87198 1.88353,-12.52689 0.94176,-6.65491 1.88353,-12.91836 0.94176,-5.87198 1.41265,-8.22077 z"
       id="text130"
       style="font-size:518.396px;font-family:'a dripping marker';-inkscape-font-specification:'a dripping marker, Normal';white-space:pre;display:inline;fill:#ffffff;stroke:#ababab;stroke-width:0"
       aria-label="N" />
    <path
       d="m 578.31601,306.99795 q -1.41264,-0.39147 -5.17971,-1.56586 -3.29617,-1.56586 -7.06323,-3.13173 -3.29618,-1.95732 -6.59237,-3.52318 -3.29617,-1.56586 -4.23794,-2.3488 -1.88352,-0.78293 -5.17971,-1.95732 -2.82529,-1.56586 -2.82529,-2.34879 -1.41265,-1.1744 -5.17971,-3.91466 -3.29617,-2.74025 -7.06324,-5.87198 -3.76706,-3.13172 -7.06323,-5.48051 -3.29618,-2.74026 -3.76707,-3.52319 0,-0.39146 -3.76705,-5.08905 -3.76706,-5.08905 -5.6506,-7.82931 -0.94176,0 -1.88352,-1.17439 -0.47089,-1.56586 -1.41265,-2.34879 -0.94177,-1.95733 -2.82529,-5.87198 -1.41265,-3.91466 -2.35442,-4.69759 0,-1.17439 -0.94177,-4.69758 -0.94176,-3.52319 -0.94176,-3.91465 v -17.22448 -17.61594 q 0.47089,-1.95733 0.94176,-3.91466 0.47089,-1.95733 0.47089,-3.52318 0.47088,-1.95733 0.47088,-3.13173 0.94177,-0.39147 1.41264,-2.74025 0.94178,-2.3488 1.41265,-3.13173 0.94177,-1.56586 3.29618,-5.48051 2.35441,-3.91465 4.70883,-7.82931 2.35441,-4.30612 4.23794,-7.8293 2.35442,-3.5232 2.82529,-4.69759 0.94178,-0.39147 3.76707,-3.52319 2.82529,-3.52319 3.76706,-3.91465 2.35441,-1.95733 7.06324,-5.87198 4.70882,-3.91466 9.41765,-7.82931 5.17971,-4.30612 8.94676,-7.43784 4.23795,-3.52319 5.17971,-4.69759 0.47089,-0.39146 2.35442,-1.56586 2.35441,-1.1744 4.70882,-2.34879 2.8253,-1.56586 5.17971,-2.74026 2.35442,-1.56586 3.76706,-2.34879 1.88353,-0.39146 7.53412,-2.74026 5.65059,-2.34879 7.53412,-3.13172 1.41264,-0.78293 7.06324,-2.34879 6.12147,-1.56586 8.47588,-2.34879 1.41265,0 7.06324,-0.78293 6.12147,-0.78294 7.53412,-0.78294 h 8.005 7.06324 q 1.41265,0 7.53413,0.78294 6.12146,0.78293 8.47588,0.78293 0.94177,0.78293 3.76706,1.56586 2.8253,0.78293 3.29617,1.56586 1.88354,0 5.6506,1.95733 4.23794,1.56586 5.1797,1.95732 1.41265,0.78293 5.17971,3.52319 3.76707,2.34879 4.70883,3.13172 0.47088,0 3.29618,3.13172 2.8253,3.13173 3.76706,4.30613 0.47088,0.78292 0.94176,1.56585 0.94176,0.39147 1.41265,1.1744 0.47088,1.1744 0.94176,1.95733 v 4.30612 4.69758 q 0,0.39146 -1.41265,2.74026 -0.94176,2.34879 -1.88352,3.13172 -0.94176,1.1744 -3.29618,3.52319 -2.35441,1.95733 -5.17971,4.30612 -2.35441,2.34879 -4.70882,4.69758 -2.35442,1.95733 -3.76707,2.74026 -0.94176,0 -4.23794,0.78293 -2.82529,0.78294 -4.23794,0.78294 h -2.35442 -1.88352 q -1.88353,-0.78294 -4.70883,-3.13173 -2.8253,-2.34879 -3.76706,-3.13172 0,-0.78293 -1.41265,-3.13173 -0.94176,-2.34879 -0.94176,-2.74025 -0.47088,-0.78293 -3.29618,-3.13173 -2.8253,-2.74025 -3.76706,-3.52318 -0.94176,-0.39147 -5.1797,-1.95733 -3.76707,-1.56587 -5.17972,-1.95733 -0.94176,-0.78293 -4.23793,-1.95732 -2.8253,-1.1744 -3.76707,-1.1744 h -10.35941 -9.41765 q 0,1.95733 -0.47089,6.26345 0,4.30611 -0.47088,9.00369 -0.47088,4.6976 -1.41264,9.00371 -0.47089,4.30612 -0.94177,5.87198 0,1.1744 -1.41265,5.08905 -0.94176,3.91465 -0.94176,5.48051 l -4.23795,-4.30611 v -36.40628 l -6.12147,15.26714 -2.35442,-1.56585 q -0.47087,-1.56586 -1.41264,-4.30613 -0.47088,-3.13171 -0.47088,-4.69758 h -2.35442 -0.47088 q -0.94176,0.78293 -2.35441,1.1744 -0.94177,0.39147 -1.88353,0.78293 -0.94176,0.39147 -1.41265,0.39147 -0.94176,0.78293 -3.76706,2.34878 -2.82529,1.1744 -3.29618,1.1744 -0.94176,0.78293 -4.23794,3.52319 -2.8253,2.34879 -3.76706,3.52319 -1.41265,0.78293 -4.23794,4.30612 -2.8253,3.13172 -2.8253,3.91466 -0.94176,0.78292 -2.8253,4.30611 -1.88352,3.13172 -2.82529,4.69758 -0.47088,0.39147 -1.41265,2.74027 -0.47088,2.34878 -1.41265,3.13171 0,1.95733 -0.94176,5.87198 -0.94176,3.91466 -0.94176,4.69759 v 10.56957 10.56956 q 0,0.78293 0.94176,3.91465 0.94176,2.74026 0.94176,4.69759 0.94177,0.78293 1.88354,3.52319 0.94176,2.34879 0.94176,3.13172 0.94177,0.39146 2.82529,3.91465 1.88354,3.52319 2.8253,4.69759 l 1.88353,2.34879 q 0.94177,0.78293 1.41265,1.95732 0.94176,0.78293 0.94176,1.56587 1.88354,1.56586 4.70883,5.08904 2.8253,3.13173 3.76706,3.13173 0.94176,1.56586 4.70882,5.08905 3.76707,3.13172 4.70883,3.91465 1.41265,0.39147 5.65059,2.74026 4.23795,2.34879 4.70882,3.13172 0.94178,0.39147 3.76707,1.56586 2.82529,1.1744 5.65058,2.74026 3.29619,1.17439 6.59237,2.74026 3.29617,1.1744 4.70882,1.56586 0.47088,0 3.29618,1.1744 2.8253,0.78293 3.76706,0.78293 1.41265,0.39146 4.23794,1.17439 3.29617,0.39147 6.12147,0.78293 2.8253,0.39147 5.17971,0.78293 2.35442,0 2.82529,0 1.41265,0 5.17972,-0.78293 4.23794,-1.17439 5.1797,-1.95732 0.94176,-0.78293 4.70882,-3.52319 3.76707,-2.74026 4.70883,-4.30612 2.35441,-2.74026 5.17971,-7.43784 3.29618,-5.08905 3.29618,-5.87198 v -28.96844 q -3.76707,-0.39146 -12.24295,-0.78293 -8.47588,-0.39146 -18.36442,-0.39146 -9.88853,-0.39147 -18.8353,-0.78294 -8.47589,-0.39146 -12.24294,-0.78293 -2.8253,0 -8.47589,-0.39146 -5.17971,-0.39147 -10.8303,-0.39147 -5.65059,-0.39146 -10.35941,-0.78293 -4.70883,-0.39146 -6.12148,-0.39146 -0.94176,-0.39146 -3.76706,-0.78293 -2.82529,-0.78293 -3.29618,-1.56586 -0.94176,-0.78294 -1.41264,-1.56587 -0.94177,-1.56586 -0.94177,-1.95732 v -1.56586 -1.1744 q 0,-1.1744 0.94177,-3.52319 0.47088,-1.17439 1.41264,-2.34879 0.47089,-1.1744 2.8253,-3.52319 2.82529,-2.34879 5.65059,-4.69759 2.82529,-2.34878 5.1797,-4.30611 2.8253,-1.95733 3.76707,-2.74026 0.94176,0 3.76706,-0.78293 3.29618,-1.17439 4.23794,-1.17439 h 6.12147 9.41765 q 7.53413,0 18.83531,0.39146 11.77206,0 24.48589,0.39147 13.18471,0 25.89854,0.39146 13.18471,0 24.01501,0.39147 10.8303,0 17.89354,0.39146 7.53411,0 8.94676,0 0.94176,0 3.76706,0.39146 3.29618,0 6.59236,0.39147 3.76706,0.39146 7.06323,0.78293 3.29618,0 4.23795,0 l 3.76705,3.13173 v 3.91465 3.52319 q 0,0.78292 -1.41264,2.34879 -1.41265,1.56586 -2.35441,2.34879 -0.47088,0.78293 -2.35441,3.52319 -1.88354,2.74026 -2.35441,3.52319 -0.94178,0 -1.41265,0.39146 -0.94177,0.78293 -0.94177,1.56586 -1.41265,1.1744 -5.65059,3.5232 -4.23794,2.34878 -4.70883,2.34878 -1.88353,0.78293 -7.53411,2.3488 -5.65059,1.56586 -7.53413,2.34879 -0.94176,0.39146 -1.88353,2.74026 -0.47088,2.34879 -1.41264,3.13172 v 3.52319 2.74025 q 0.47088,0.78293 0.94176,3.91466 0.94176,3.13172 1.88353,7.43784 0.94177,3.91465 1.41264,7.8293 0.94178,3.91466 1.41265,6.26345 0.47089,1.1744 0.94177,5.48051 0.94177,4.30613 1.88353,5.08906 0,1.17439 0.47088,3.52319 0.94177,2.34879 1.88354,5.08904 0.94176,2.3488 1.88352,4.69759 0.94177,2.34879 1.41265,3.52319 0,0.78293 0.47089,3.13172 0.94176,2.34879 1.41264,5.08905 0.94177,2.34879 1.41265,4.30612 0.94176,1.95732 0.94176,2.34879 0,0.78293 0,4.30612 0.47089,3.13172 0.47089,4.30612 0,2.34879 -0.47089,5.08905 0,3.13172 0,3.91465 -0.94176,1.56586 -1.88353,2.74026 -0.94176,1.1744 -1.88352,1.95733 -0.47089,0.78293 -0.47089,1.56586 -1.88353,1.56586 -6.12147,4.30612 -3.76707,2.74025 -4.70883,3.52318 -1.41265,0.78293 -5.1797,2.74026 -3.76706,1.95733 -5.17971,1.95733 h -3.76707 -4.23793 l -1.88354,-1.95733 q -0.94176,-0.78293 -2.82529,-6.26344 -1.41265,-5.08905 -2.35441,-7.04638 l -0.94177,-3.13173 q -0.47088,-1.17439 -1.41265,-2.74025 -0.47088,-1.1744 -0.94176,-1.95733 0,-1.1744 -0.94177,-5.08905 -0.94176,-3.91465 -2.35441,-8.61224 -1.41264,-4.69758 -2.82529,-9.0037 -0.94177,-4.30611 -0.94177,-5.48051 0,-0.78293 -1.41265,-3.13173 -0.94176,-2.34879 -0.94176,-3.13172 -1.41265,1.1744 -6.12147,4.30612 -4.70883,3.13173 -6.59236,4.30612 -2.35442,1.56586 -6.12147,4.30612 -3.76706,2.34879 -4.23795,2.34879 -1.88353,0.39146 -7.53411,2.74026 -5.65059,2.34879 -7.53413,3.13172 -1.41265,0.78293 -7.53411,2.74026 -6.12148,1.95733 -8.47589,1.95733 0.94176,1.17439 0.94176,5.87198 0,5.08905 -0.94176,7.04637 0,0.78293 -1.41265,4.69759 -0.94176,4.30611 -0.94176,5.87198 -0.47089,-0.78293 -1.41265,-1.56587 -0.47089,-0.39146 -0.47089,-0.78293 -0.94176,0 -1.88353,-3.52318 -0.47088,-3.5232 -0.94176,-4.69759 0,-1.56586 -1.41265,-5.87198 -0.94176,-3.91465 -0.94176,-5.48052 l -0.94177,-0.78293 q -0.94177,-0.78292 -2.35441,-0.78292 h -0.94177 -1.41264 q 0,1.95732 -0.47089,7.04637 0,5.08905 -0.47088,10.56957 -0.47088,5.87198 -0.94177,10.96103 0,5.08904 0,7.04637 -0.47087,1.1744 -0.94176,3.91465 -0.47089,2.74027 -0.94176,5.48052 0,3.13173 -0.47089,5.87198 -0.47088,3.13173 -0.47088,4.30612 0,1.17439 -1.41265,5.08905 -0.94176,3.91465 -0.94176,5.48052 -0.94177,0 -1.88353,0.78293 -0.47088,0.78293 -1.41265,0.78293 0,-1.1744 -1.41264,-5.08906 -0.94178,-3.91465 -0.94178,-5.48051 v -21.13913 q 0,-0.39146 -0.94176,-4.30612 -0.94176,-3.52319 -0.94176,-4.30612 -0.47089,-1.1744 -0.94177,-5.08905 -0.47088,-3.91465 -0.94176,-8.22077 -0.47089,-4.30612 -0.94177,-8.22077 0,-3.91466 0,-5.48051 z"
       id="text129"
       style="font-size:518.396px;font-family:'a dripping marker';-inkscape-font-specification:'a dripping marker, Normal';white-space:pre;display:inline;fill:#ffffff;stroke:#ababab;stroke-width:0"
       aria-label="G" />
    <path
       d="m 792.09631,297.21132 q -0.94177,0.78293 -1.88353,1.17439 -0.94177,0.39147 -1.88353,0.78294 -0.47089,0.39146 -1.41265,0.39146 -1.41265,0.78293 -3.29618,1.95732 -3.76706,2.3488 -4.23794,2.74026 -2.82529,0.78294 -5.65059,1.95733 l -3.76706,1.56586 q -0.94177,0 -2.35441,0.39146 -0.94177,0.39147 -1.88353,0.39147 -0.94177,0 -2.35442,-0.39147 -0.94176,-0.39146 -1.88352,-0.39146 l -0.94177,-0.78293 q -0.94177,-0.78293 -0.94177,-0.78293 v -3.13172 -3.52319 q 0,0 0,-1.56586 0.47089,-1.56587 0.94177,-3.13173 0.47088,-1.95732 0.47088,-3.52318 0.47089,-1.95733 0.47089,-2.3488 0.94176,-2.74025 1.88352,-7.43784 0.94177,-4.69758 0.94177,-5.48051 v -29.75137 -31.31723 q 0,-0.39146 -0.94177,-0.78292 -0.94176,-0.78294 -1.88352,-1.56587 h -1.41265 -0.47089 q -0.47088,0.39147 -2.82529,0.78293 -1.88353,0.39147 -4.23795,0.78294 -1.88352,0 -3.76705,0.39146 -1.88354,0.39146 -1.88354,0.39146 h -6.59235 -6.12147 q -0.94177,-0.39146 -1.41265,-0.78292 -0.94177,-0.78294 -0.94177,-1.56587 l -0.94176,-0.78293 q -0.47089,-0.39147 -0.47089,-1.95733 0,-1.17439 0.47089,-1.95732 l 0.94176,-1.56586 q 0,-0.78294 0.47089,-1.95733 1.41264,-1.95733 1.88353,-2.34879 0.47088,-0.78293 2.35441,-3.13173 1.88353,-2.34879 2.35441,-3.13172 0,-0.78293 2.35442,-1.95733 2.35441,-1.56586 3.29617,-2.34879 0.94176,0 4.70883,-2.74025 3.76706,-2.74027 4.70882,-3.5232 1.41265,0 2.35441,-0.78293 0.47089,-0.39146 0.94177,-1.17439 v -2.34879 -1.56587 q -0.47088,-0.78293 -1.41264,-6.65491 -0.47089,-5.87198 -1.41265,-12.91835 -0.94177,-7.04638 -1.88354,-12.91836 -0.47087,-6.26344 -0.94176,-7.43784 l -4.70883,-7.82931 q -0.94176,-1.1744 -2.82529,-3.52318 -1.88353,-2.74027 -2.82529,-2.74027 -0.94177,-1.56585 -4.70883,-4.69758 -3.76706,-3.52319 -4.70883,-4.30612 -0.94176,0 -4.23793,-1.56586 -3.29619,-1.95732 -4.23795,-2.34879 l -1.88353,-1.95733 v -4.69758 -3.91465 q 0,-0.78294 2.35441,-3.914659 1.88353,-3.52319 2.35442,-4.30612 0.94176,-1.56586 4.70882,-4.69758 4.23794,-3.52319 5.1797,-4.30612 1.88354,-0.39147 5.6506,-1.95733 4.23794,-1.56586 5.1797,-1.95732 h 4.23795 2.82529 q 0.47089,0 3.29618,1.17439 2.8253,0.78293 5.6506,1.95733 3.29617,1.1744 5.65058,1.95733 2.82529,0.78293 3.76706,0.78293 2.35441,1.17439 7.06324,3.13172 4.70882,1.56586 5.65059,1.56586 2.35442,0.78293 6.59235,1.95733 4.70883,1.17439 9.41766,2.74026 5.17971,1.17439 8.94676,2.34879 4.23795,1.17439 5.17971,1.56586 0.94177,0 4.70883,0.782929 3.76706,0.78293 8.47588,1.95733 5.17971,1.17439 9.88853,2.34879 5.17971,0.78293 8.00501,0.78293 0.94177,0 5.65059,1.1744 4.70883,0.78293 7.06324,0.78293 0.94176,0.39146 3.29618,1.17439 2.35441,0.39147 4.70882,0.78293 2.35441,0.39147 4.23794,0.78293 2.35441,0 2.8253,0 3.29618,0 10.8303,0.78293 7.53411,0.39147 16.01,1.1744 8.47589,0.78293 16.01001,1.56586 7.53412,0.39147 10.83029,0.78293 l 0.94178,0.78293 0.94176,0.78293 v 4.69759 4.30611 l -1.88354,3.5232 q -0.94176,1.17439 -2.82528,3.13172 -1.88354,1.95733 -3.76707,3.91465 -1.88352,1.95733 -3.76706,3.91466 -1.88353,1.95732 -2.35441,2.34878 l -5.1797,83.38213 -4.23795,1.95732 v -81.03332 l -1.88353,0.78293 q -0.47089,0.39146 -0.94176,0.39146 -0.47089,0 -0.47089,0.39147 -0.47088,0.39146 -0.94176,5.87198 -0.47089,5.08905 -0.94177,11.3525 0,5.87198 -0.47088,10.96102 -0.47089,4.69759 -0.47089,4.69759 0,0.78293 -1.88352,1.56586 l -1.88353,0.78293 v -36.79774 q -1.88354,-0.39147 -7.06324,-0.78293 -4.70882,-0.39147 -10.35942,-0.39147 -5.1797,-0.39147 -10.35942,-0.78293 -4.70882,-0.39147 -6.59235,-0.39147 -1.41265,0 -4.70882,-0.39146 -2.8253,-0.39147 -6.12148,-0.39147 -3.29617,-0.39147 -6.12147,-0.78293 -2.82529,-0.39147 -3.76706,-0.39147 -1.41265,-0.39146 -7.06324,-1.17439 -5.65059,-1.17439 -12.24294,-2.34879 -6.12148,-1.1744 -11.77207,-1.95733 -5.65059,-0.78293 -7.06323,-0.78293 h -1.88354 q 0,0.78293 -0.47088,3.13172 -0.47088,2.3488 0.47088,3.13172 0,0.39147 0,5.87199 0.47089,5.08905 0.47089,11.3525 0.47088,6.26344 0.94176,11.74396 0.47089,5.08904 0.47089,5.08904 2.82528,0.39147 9.88852,0.78294 7.06324,0.39146 14.59737,0.78293 8.005,0.39146 14.59736,0.78292 7.06324,0.39147 9.88853,0.78293 0.94176,0 4.70882,0.78293 4.23795,0.78294 5.17971,0.78294 0.47088,0.78293 2.35442,2.34879 2.35441,1.17439 2.35441,1.95732 v 2.74026 3.52319 q 0,0.78293 -0.94177,2.34879 -0.94177,1.1744 -0.94177,1.95733 -0.94176,1.56586 -2.82529,3.91465 -1.41265,1.56587 -2.35441,2.3488 -0.94176,1.56585 -3.76706,3.91465 -2.8253,2.34879 -3.76706,3.13172 -1.88353,0.78293 -6.12148,2.34879 -3.76705,1.1744 -4.70882,1.1744 -0.47088,0.39147 -1.41265,0.39147 -0.94177,0.39146 -2.82529,0.39146 -1.41265,0 -3.29618,-0.39146 -1.88354,-0.39147 -2.8253,-0.39147 -0.94176,0 -6.12147,-0.78293 -5.17971,-0.78293 -6.59236,-0.78293 h -12.71382 v 54.41368 q 1.41265,0 8.005,-0.78293 6.59235,-0.78293 8.005,-0.78293 1.88354,0 7.06324,-0.39146 5.65059,-0.39147 11.77206,-0.39147 6.12148,-0.39146 11.30119,-0.78293 5.65059,-0.39146 8.005,-0.39146 -0.94176,-1.1744 -3.29618,-5.08905 -2.35441,-3.91466 -2.35441,-5.48052 0,-0.78293 -0.94177,-4.69759 -0.94176,-4.30611 -0.94176,-5.87198 v -1.56586 -1.17439 q 0,-0.78293 0.94176,-3.13173 0.94177,-2.34878 0.94177,-2.74025 0,-0.39146 0.94176,-2.74026 0.47088,-1.1744 1.41265,-1.95733 0.47088,-0.78293 2.82529,-2.34879 2.35442,-1.95733 4.70883,-3.91465 2.35441,-1.95733 4.70882,-3.52319 2.35442,-1.95733 3.76707,-2.74026 0.94176,-0.39146 2.35441,-0.78292 1.88353,-0.78294 2.8253,-1.56587 h 5.65059 4.23794 q 0.47088,1.1744 0.94176,1.95733 0.47089,1.17439 1.88353,2.34879 0,0.78293 0.94177,4.69758 0.94176,3.52319 0.94176,3.91466 0.94176,1.56586 3.76706,6.26345 3.29618,4.69758 4.23794,6.26344 0.47089,1.17439 3.29619,4.30612 2.82529,3.13172 3.76705,4.30611 0.47089,0.78294 2.8253,2.74027 2.35441,1.56586 4.70882,3.52318 2.35442,1.95733 4.70883,3.91466 2.35441,1.56585 3.76706,2.34879 0.94177,0.78293 6.12148,4.30612 5.1797,3.13172 6.59235,4.30612 0.94176,0.78293 3.76706,2.34878 2.82529,1.56587 3.29618,2.3488 1.41265,0.39147 5.65059,2.3488 4.70882,1.56585 9.88853,3.52318 5.17971,1.95733 9.41765,3.91465 4.70883,1.95733 6.12148,2.74026 0.94176,0.39147 2.82529,1.95733 2.35441,1.56586 2.35441,1.95732 v 3.52319 4.69759 q 0,0.78293 -1.41265,2.74026 -0.94176,1.56585 -1.41264,1.56585 -0.94177,1.1744 -3.29618,3.13173 -1.88353,1.95732 -4.23794,3.91465 -2.35442,1.95733 -4.70883,3.91465 -1.88353,1.95733 -2.8253,2.3488 -0.94176,0 -2.82529,0.78293 -1.88353,1.1744 -2.8253,1.1744 h -6.12147 -6.59235 q -0.94177,0 -3.29618,-0.78294 -2.35441,-0.39146 -5.65059,-1.17439 -2.8253,-0.78294 -5.6506,-1.56587 -2.35441,-0.78293 -2.82528,-1.17439 -3.76707,-0.78293 -10.35942,-1.95733 -6.12147,-1.56586 -12.71383,-2.74026 -6.59236,-1.17439 -11.77207,-1.95732 -4.70882,-1.1744 -5.65059,-1.1744 -0.94176,0 -2.35441,-0.39146 -2.82529,-0.78293 -3.29618,-0.78293 -0.47088,0 -2.35441,0.78293 -1.88352,0.39146 -2.35441,0.39146 0,0.78294 -0.47089,3.52319 -0.47087,2.74026 -0.94176,5.48051 0,3.13173 -0.47088,5.87198 -0.47088,2.74026 -0.47088,3.5232 0,1.17439 -1.41265,5.48051 -0.94177,4.30612 -1.88353,5.08905 0,0.78293 -1.41265,2.34879 -0.94176,1.56586 -0.94176,2.34879 0,-0.78293 -0.47089,-3.13172 0,-1.95733 -0.47088,-4.30612 -0.47088,-2.34879 -0.94177,-4.69759 0,-1.95732 0,-3.13171 -0.47087,-0.78294 -0.94176,-3.91466 -0.47088,-2.74026 -0.94176,-6.26345 -0.47089,-3.52318 -0.94177,-6.6549 0,-3.13173 0,-4.30613 l -2.35441,-1.95732 q -0.94176,0 -2.35441,0.78293 -0.94177,0.39146 -1.88354,0.39146 v 62.24299 l -3.29617,10.56957 q -0.94177,-0.39146 -1.88353,-2.74026 -0.94176,-2.34879 -0.94176,-3.13172 0,-1.17439 -0.47089,-3.91465 -0.47089,-2.3488 -0.94176,-5.48052 0,-2.74026 -0.47089,-5.87198 -0.47088,-2.74026 -0.47088,-3.91465 -0.47088,-2.74026 -0.94177,-10.1781 -0.47088,-7.04638 -0.94176,-15.26715 0,-8.22077 -0.47088,-15.26715 -0.47089,-7.43784 -0.94177,-10.56956 z"
       id="text128"
       style="font-size:518.396px;font-family:'a dripping marker';-inkscape-font-specification:'a dripping marker, Normal';white-space:pre;fill:#ffffff;stroke:#ababab;stroke-width:0"
       aria-label="E" />
  </g>
</svg>
