<?xml version="1.0" encoding="UTF-8" standalone="no"?>
<svg
   version="1.1"
   viewBox="0 0 3790.1997 1124.3257"
   id="svg2"
   sodipodi:docname="systemsp.svg"
   width="3790.1997"
   height="1124.3257"
   inkscape:version="1.4.2 (ebf0e940d0, 2025-05-08)"
   xmlns:inkscape="http://www.inkscape.org/namespaces/inkscape"
   xmlns:sodipodi="http://sodipodi.sourceforge.net/DTD/sodipodi-0.dtd"
   xmlns="http://www.w3.org/2000/svg"
   xmlns:svg="http://www.w3.org/2000/svg">
  <defs
     id="defs2">
    <rect
       x="14.367515"
       y="586.19458"
       width="3827.5061"
       height="704.00824"
       id="rect2" />
  </defs>
  <sodipodi:namedview
     id="namedview2"
     pagecolor="#505050"
     bordercolor="#eeeeee"
     borderopacity="1"
     inkscape:showpageshadow="0"
     inkscape:pageopacity="0"
     inkscape:pagecheckerboard="0"
     inkscape:deskcolor="#505050"
     inkscape:zoom="0.34800729"
     inkscape:cx="1885.018"
     inkscape:cy="646.53817"
     inkscape:window-width="1920"
     inkscape:window-height="1011"
     inkscape:window-x="0"
     inkscape:window-y="0"
     inkscape:window-maximized="1"
     inkscape:current-layer="svg2" />
  <path
     class="st1"
     d="m 1455.6328,274.7 c 0,-34 -28.3,-62.2 -62.2,-62.2 h -45.3 c -41,0 -75,-34 -75,-75 0,-41 34,-75 75,-75 h 175.4 V 7.3 h -176.8 c -72.2,0 -130.2,58 -130.2,130.2 0,72.2 58,130.2 130.2,130.2 h 45.3 c 4.2,0 7.1,2.8 7.1,7.1 0,4.2 -2.8,7.1 -5.7,7.1 h -176.9 V 337 h 176.8 c 34,0 62.3,-28.3 62.3,-62.3 z m -62.3,-129.9 h -45.3 c -4.2,0 -7.1,-2.8 -7.1,-7.1 0,-2.8 2.8,-5.7 5.7,-5.7 h 176.9 V 75.4 l -176.8,0.1 c -34,0 -62.2,28.3 -62.2,62.3 0,34 28.3,62.2 62.3,62.2 h 45.3 c 41,0 75,33.9 75,74.9 0,41 -33.9,75 -74.9,75 l -175.4,0.1 v 55.2 l 176.8,-0.1 c 72.2,0 130.1,-58.1 130.1,-130.2 0,-72.1 -58.2,-130.1 -130.4,-130.1 z m 615.5,-14.4 h 157 V 75.2 h -183.9 c -24.1,0 -42.4,18.4 -42.4,42.4 v 176.8 c 0,24.1 18.4,42.4 42.4,42.4 h 114.6 V 212.5 h -87.7 v 55.2 h 32.5 v 12.7 h -32.5 c -7.1,0 -12.7,-5.7 -12.7,-12.7 V 143.1 c 0,-7 5.6,-12.7 12.7,-12.7 z m 449.9,206.6 -87.7,-260.3 c -2.8,-7.1 -8.5,-12.7 -17,-12.7 -7.1,0 -14.1,5.7 -17,11.3 l -113.2,329.6 h 65.1 l 39.6,-117.4 V 337 Z m -106.1,-118.9 18.4,56.6 h -38.2 z m 86.2,-153.1 c -11.3,-36.7 -45.3,-65 -86.3,-65 -41,0 -75,26.9 -84.9,63.7 l -103.1,302.8 -0.1,-222.1 -155.6,0.1 v 55.2 l 101.9,-0.1 0.1,150 -127.3,0.1 c -31.1,0 -55.2,-25.4 -55.2,-55.1 l -0.1,-176.8 c 0,-31.1 25.4,-55.2 55.1,-55.2 l 182.5,-0.1 V 7.3 l -183.9,0.1 c -60.8,0 -110.3,49.6 -110.3,110.4 l 0.1,176.8 c 0,60.8 49.6,110.3 110.4,110.3 l 227.8,-0.1 114.4,-332.5 c 4.2,-12.7 15.6,-21.2 29.7,-21.2 14.1,0 25.5,8.5 29.7,21.2 l 93.5,277.2 -147.1,0.1 v 55.2 l 223.5,-0.1 z m -833.2,229.5 V 117.7 c 0,-31.1 25.5,-55.2 55.2,-55.2 h 189.6 V 7.3 h -189.6 c -60.8,0 -110.4,49.5 -110.4,110.4 v 176.8 c 0,60.8 49.5,110.4 110.4,110.4 h 189.6 v -55.2 h -189.6 c -31.2,0 -55.2,-25.5 -55.2,-55.2 z m 80.7,-11.2 c -7.1,-1.4 -12.7,-7.1 -12.7,-14.1 l 137.2,-0.1 v -55.2 l -192.4,0.1 v 82.1 c 0,24.1 18.4,42.4 42.5,42.4 l 189.6,-0.1 v -55.2 z m -0.1,-151.5 h 162.7 V 75.2 h -188.2 c -24.1,0 -42.4,18.4 -42.4,42.4 v 82.1 h 192.4 v -55.2 h -137.2 c 0,-7 5.7,-12.7 12.7,-12.7 z"
     style="fill:#ffffff"
     id="path1" />
  <path
     d="m 199.8,717.52575 q -4.8,0 -7.8,3 -2.4,3 -2.4,7.2 0,3.6 1.8,7.2 1.8,3 5.4,3.6 1.8,0.6 13.8,3.6 12.6,2.4 28.2,6 15.6,3.6 31.2,8.4 16.2,4.2 24.6,8.4 18,10.2 35.4,24.6 17.4,14.4 31.2,34.8 13.8,19.8 22.2,46.8 8.4,26.4 8.4,60.6 0,40.8 -15,76.19995 -14.4,34.8 -39.6,60.6 -25.2,25.8 -60,40.8 -34.2,15 -73.8,15 H 0 v -79.8 h 203.4 q 25.2,0 45.6,-8.4 21,-8.4 36,-23.4 15,-15 22.8,-35.4 8.4,-20.99995 8.4,-45.59995 0,-31.2 -11.4,-51 -11.4,-19.8 -28.2,-31.2 -16.8,-12 -36.6,-17.4 -19.2,-6 -35.4,-9.6 -18,-3.6 -35.4,-9.6 -16.8,-6.6 -30,-17.4 -13.2,-10.8 -21.6,-27 -7.8,-16.2 -7.8,-40.2 0,-22.8 6.6,-39.6 6.6,-17.4 18,-28.8 12,-11.4 27.6,-16.8 16.2,-6 34.8,-6 h 198.6 v 79.8 z m -3,-102 q -24.6,0 -45,8.4 -19.8,8.4 -34.2,23.4 -13.8,15 -21.599998,36 -7.8,20.4 -7.8,45 0,25.8 9,45 8.999998,19.2 22.799998,33 14.4,13.8 31.8,22.2 17.4,7.8 34.2,10.8 16.2,3 35.4,8.4 19.2,4.8 35.4,15 16.2,9.6 27,26.4 10.8,16.8 10.8,42.6 0,22.8 -7.2,40.2 -7.2,16.79995 -19.8,28.19995 -12.6,11.4 -29.4,17.4 -16.2,5.4 -34.8,5.4 H 0 v -79.79995 h 196.2 q 4.8,0 7.2,-3 3,-3.6 3,-7.2 0,-8.4 -7.2,-11.4 -1.8,-0.6 -14.4,-3 -12.6,-2.4 -28.8,-6 -15.6,-3.6 -31.2,-7.8 -15.6,-4.8 -24,-9.6 -17.4,-9.6 -34.200001,-24 -16.799999,-14.4 -29.999999,-34.2 -12.600001,-20.4 -20.400001,-46.8 -7.8,-27 -7.8,-61.8 0,-40.2 14.4,-75.6 15,-35.4 40.2,-61.2 25.200003,-25.8 59.400001,-40.8 34.8,-15 74.4,-15 h 198.6 v 79.8 z m 437.39948,223.8 h 35.4 q 22.8,0 38.4,-6 15.6,-6.6 25.2,-18 10.2,-11.4 14.4,-27 4.8,-15.6 4.8,-33.6 v -219 h 75.6 v 202.2 q 0,80.4 -27.6,123 -27,42.6 -86.4,54 v 209.39995 h -79.8 z m -101.4,284.99995 V 914.92575 q -59.4,-11.4 -87.6,-54 -27.6,-42.6 -27.6,-123 v -202.2 h 75.6 v 219 q 0,18 4.2,33.6 4.8,15.6 14.4,27 10.2,11.4 25.8,18 15.6,6 38.4,6 h 36.6 v 284.99995 z m 109.2,-386.39995 q 6.6,0 9,-4.2 2.4,-4.2 2.4,-11.4 v -186.6 h 77.4 v 207 q 0,21 -3,35.4 -3,13.8 -10.8,22.8 -7.2,9 -21,13.2 -13.2,3.6 -34.2,3.6 h -78 q -21,0 -34.8,-3.6 -13.2,-4.2 -21,-13.2 -7.2,-9 -10.2,-22.8 -3,-14.4 -3,-35.4 v -207 h 77.4 v 186.6 q 0,7.2 1.8,11.4 2.4,4.2 9.6,4.2 z M 1056,717.52575 q -4.8,0 -7.8,3 -2.4,3 -2.4,7.2 0,3.6 1.8,7.2 1.8,3 5.4,3.6 1.8,0.6 13.8,3.6 12.6,2.4 28.2,6 15.6,3.6 31.2,8.4 16.2,4.2 24.6,8.4 18,10.2 35.4,24.6 17.4,14.4 31.2,34.8 13.8,19.8 22.2,46.8 8.4,26.4 8.4,60.6 0,40.8 -15,76.19995 -14.4,34.8 -39.6,60.6 -25.2,25.8 -60,40.8 -34.2,15 -73.8,15 H 856.20001 v -79.8 H 1059.6 q 25.2,0 45.6,-8.4 21,-8.4 36,-23.4 15,-15 22.8,-35.4 8.4,-20.99995 8.4,-45.59995 0,-31.2 -11.4,-51 -11.4,-19.8 -28.2,-31.2 -16.8,-12 -36.6,-17.4 -19.2,-6 -35.4,-9.6 -18,-3.6 -35.4,-9.6 -16.8,-6.6 -29.99999,-17.4 -13.2,-10.8 -21.6,-27 -7.8,-16.2 -7.8,-40.2 0,-22.8 6.6,-39.6 6.6,-17.4 18,-28.8 11.99999,-11.4 27.59999,-16.8 16.2,-6 34.8,-6 h 198.6 v 79.8 z m -3,-102 q -24.6,0 -45,8.4 -19.79999,8.4 -34.19999,23.4 -13.8,15 -21.6,36 -7.8,20.4 -7.8,45 0,25.8 9,45 9,19.2 22.8,33 14.4,13.8 31.79999,22.2 17.4,7.8 34.2,10.8 16.2,3 35.4,8.4 19.2,4.8 35.4,15 16.2,9.6 27,26.4 10.8,16.8 10.8,42.6 0,22.8 -7.2,40.2 -7.2,16.79995 -19.8,28.19995 -12.6,11.4 -29.4,17.4 -16.2,5.4 -34.8,5.4 H 856.20001 V 943.12575 H 1052.4 q 4.8,0 7.2,-3 3,-3.6 3,-7.2 0,-8.4 -7.2,-11.4 -1.8,-0.6 -14.4,-3 -12.6,-2.4 -28.8,-6 -15.59999,-3.6 -31.19999,-7.8 -15.6,-4.8 -24,-9.6 -17.4,-9.6 -34.2,-24 -16.8,-14.4 -30,-34.2 -12.6,-20.4 -20.4,-46.8 -7.8,-27 -7.8,-61.8 0,-40.2 14.4,-75.6 15,-35.4 40.2,-61.2 25.2,-25.8 59.4,-40.8 34.79999,-15 74.39999,-15 h 198.6 v 79.8 z m 631.1995,-79.8 v 79.8 h -410.4 v -79.8 z m -215.4,101.4 v 487.19995 h -79.8 V 716.92575 h -115.2 v -79.8 z m 21.6,0 h 193.8 v 79.8 h -114 v 407.39995 h -79.8 z m 217.8006,79.8 q 0,-37.8 13.8,-70.8 13.8,-33.6 36.6,-57.6 23.4,-24.6 53.4,-38.4 30.6,-14.4 63,-14.4 h 227.4 v 79.8 h -217.8 q -22.8,0 -40.8,9 -18,9 -30.6,23.4 -12,14.4 -18.6,33 -6.6,18 -6.6,36 v 226.2 q 0,18 6.6,36.59995 6.6,18 18.6,32.4 12.6,14.4 30.6,23.4 18,9 40.8,9 h 217.8 v 79.8 h -227.4 q -32.4,0 -63,-13.8 -30,-14.4 -53.4,-38.4 -22.8,-24.6 -36.6,-57.6 -13.8,-33.6 -13.8,-71.39995 z m 101.4,103.2 v -91.2 q 0,-15.6 4.8,-31.8 5.4,-16.8 15.6,-30 10.2,-13.2 25.8,-21.6 15.6,-8.4 36.6,-8.4 h 210 v 79.8 h -208.2 q -3.6,0 -7.8,4.2 -3.6,4.2 -3.6,11.4 v 8.4 h 174 v 79.2 z m 0,19.8 h 247.2 v 79.8 h -174 v 7.8 q 0,7.2 3.6,11.4 4.2,4.2 7.8,4.2 h 208.2 v 79.79995 h -210 q -21,0 -36.6,-8.4 -15.6,-8.4 -25.8,-21.6 -10.2,-13.2 -15.6,-29.39995 -4.8,-16.8 -4.8,-32.4 z m 658.8003,21 -85.8,-229.8 q -2.4,-6 -10.2,-10.8 -7.8,-4.8 -17.4,-4.8 -8.4,0 -17.4,4.8 -9,4.8 -10.8,10.8 l -172.8,493.19995 h -79.8 l 185.4,-523.19995 q 4.8,-12.6 12.6,-24 7.8,-12 19.2,-21 12,-9.6 27.6,-15 15.6,-5.4 36,-5.4 20.4,0 35.4,5.4 15,5.4 26.4,15 11.4,9 19.2,21 8.4,11.4 14.4,24 l 18,36 18,-36 q 6.6,-12.6 14.4,-24 8.4,-12 19.2,-21 11.4,-9.6 26.4,-15 15,-5.4 35.4,-5.4 19.8,0 35.4,5.4 16.2,5.4 27.6,15 12,9 19.8,21 8.4,11.4 12.6,24 l 185.4,523.19995 h -79.8 l -172.8,-493.19995 q -1.8,-6 -10.8,-10.8 -9,-4.8 -17.4,-4.8 -9.6,0 -17.4,4.8 -7.8,4.8 -10.2,10.8 z m 0,263.39995 -113.4,-302.39995 -99.6,302.39995 h -79.8 l 164.4,-478.19995 q 1.2,-3.6 6,-6 4.8,-3 9,-3 4.2,0 8.4,3 4.8,2.4 6,6 l 99,273 99,-273 q 1.2,-3.6 5.4,-6 4.8,-3 9,-3 4.2,0 9,3 4.8,2.4 6,6 l 164.4,478.19995 h -76.8 l -102.6,-302.39995 z M 3147.6,717.52575 q -4.8,0 -7.8,3 -2.4,3 -2.4,7.2 0,3.6 1.8,7.2 1.8,3 5.4,3.6 1.8,0.6 13.8,3.6 12.6,2.4 28.2,6 15.6,3.6 31.2,8.4 16.2,4.2 24.6,8.4 18,10.2 35.4,24.6 17.4,14.4 31.2,34.8 13.8,19.8 22.2,46.8 8.4,26.4 8.4,60.6 0,40.8 -15,76.19995 -14.4,34.8 -39.6,60.6 -25.2,25.8 -60,40.8 -34.2,15 -73.8,15 h -203.4 v -79.8 h 203.4 q 25.2,0 45.6,-8.4 21,-8.4 36,-23.4 15,-15 22.8,-35.4 8.4,-20.99995 8.4,-45.59995 0,-31.2 -11.4,-51 -11.4,-19.8 -28.2,-31.2 -16.8,-12 -36.6,-17.4 -19.2,-6 -35.4,-9.6 -18,-3.6 -35.4,-9.6 -16.8,-6.6 -30,-17.4 -13.2,-10.8 -21.6,-27 -7.8,-16.2 -7.8,-40.2 0,-22.8 6.6,-39.6 6.6,-17.4 18,-28.8 12,-11.4 27.6,-16.8 16.2,-6 34.8,-6 h 198.6 v 79.8 z m -3,-102 q -24.6,0 -45,8.4 -19.8,8.4 -34.2,23.4 -13.8,15 -21.6,36 -7.8,20.4 -7.8,45 0,25.8 9,45 9,19.2 22.8,33 14.4,13.8 31.8,22.2 17.4,7.8 34.2,10.8 16.2,3 35.4,8.4 19.2,4.8 35.4,15 16.2,9.6 27,26.4 10.8,16.8 10.8,42.6 0,22.8 -7.2,40.2 -7.2,16.79995 -19.8,28.19995 -12.6,11.4 -29.4,17.4 -16.2,5.4 -34.8,5.4 H 2947.8 V 943.12575 H 3144 q 4.8,0 7.2,-3 3,-3.6 3,-7.2 0,-8.4 -7.2,-11.4 -1.8,-0.6 -14.4,-3 -12.6,-2.4 -28.8,-6 -15.6,-3.6 -31.2,-7.8 -15.6,-4.8 -24,-9.6 -17.4,-9.6 -34.2,-24 -16.8,-14.4 -30,-34.2 -12.6,-20.4 -20.4,-46.8 -7.8,-27 -7.8,-61.8 0,-40.2 14.4,-75.6 15,-35.4 40.2,-61.2 25.2,-25.8 59.4,-40.8 34.8,-15 74.4,-15 h 198.6 v 79.8 z m 322.1996,228 h 133.2 q 25.2,0 45,-8.4 20.4,-8.4 34.8,-23.4 14.4,-15 22.2,-36 7.8,-21 7.8,-45.6 0,-24.6 -7.8,-45.6 -7.8,-21 -22.2,-36 -14.4,-15 -34.8,-23.4 -19.8,-8.4 -45,-8.4 h -234.6 v -81 h 234.6 q 39.6,0 74.4,15 34.8,15 60.6,41.4 25.8,26.4 40.2,61.8 15,35.4 15,76.2 0,40.8 -15,76.2 -15,35.4 -40.8,61.8 -25.2,26.4 -60,41.4 -34.8,15 -74.4,15 h -53.4 v 199.79995 h -79.8 z m -101.4,-102 h 234.6 q 3.6,0 5.4,-3.6 1.8,-4.2 1.8,-7.8 0,-3.6 -1.8,-7.2 -1.8,-4.2 -5.4,-4.2 h -234.6 v -80.4 h 234.6 q 37.8,0 62.4,22.8 25.2,22.8 25.2,69 0,46.2 -25.2,69 -24.6,22.8 -62.4,22.8 h -154.8 v 302.39995 h -79.8 z"
     id="text2"
     style="font-size:600px;font-family:'SEGA LOGO FONT';-inkscape-font-specification:'SEGA LOGO FONT';white-space:pre;fill:#ffffff"
     aria-label="SYSTEM SP" />
</svg>
