<?xml version="1.0" encoding="UTF-8" standalone="no"?><svg fill="currentColor" version="1.1" id="Layer_1" viewBox="0 0 642.302 590.597" xml:space="preserve" xmlns="http://www.w3.org/2000/svg" xmlns:svg="http://www.w3.org/2000/svg"><rect x="105.872" y="21.497" width="1.504" height="60.159" style="clip-rule:evenodd;fill:#ffffff;fill-opacity:0.50196081;fill-rule:evenodd;stroke-width:0.0834926;stroke-linejoin:round;stroke-miterlimit:2" id="rect8-4" transform="matrix(12.298383,0,0,9.8173071,-678.24713,-211.03905)"/><path d="M 10,0 C 17.698,0 22.509,8.333 18.66,15 16.874,18.094 13.573,20 10,20 2.302,20 -2.509,11.667 1.34,5 3.126,1.906 6.427,0 10,0 Z M 9.063,4.688 V 10 c 0,0.313 0.156,0.605 0.417,0.781 l 3.75,2.5 c 0.43,0.289 1.012,0.172 1.301,-0.261 0.289,-0.434 0.172,-1.012 -0.261,-1.301 L 10.938,9.5 V 4.688 C 10.938,4.168 10.52,3.75 10,3.75 9.48,3.75 9.063,4.168 9.063,4.688 Z" style="fill:#ffffff;stroke-width:0.0247069" id="path1-1" transform="matrix(24.689393,0,0,24.689393,0.36295894,57.356454)"/></svg>