<?xml version="1.0" encoding="UTF-8" standalone="no"?><svg fill="currentColor" version="1.1" id="Layer_1" viewBox="0 0 15.36 15.36" xml:space="preserve" xmlns="http://www.w3.org/2000/svg" xmlns:svg="http://www.w3.org/2000/svg"><g id="g6" style="fill:#ffffff" transform="scale(0.0299164)"><g id="g4" style="fill:#ffffff"><path d="M 437.02,74.981 C 388.668,26.628 324.38,0 256,0 187.62,0 123.333,26.628 74.98,74.981 26.628,123.333 0,187.62 0,256 0,324.38 26.628,388.667 74.98,437.019 123.333,485.372 187.62,512 256,512 324.38,512 388.667,485.372 437.02,437.019 485.372,388.668 512,324.38 512,256 512,187.62 485.372,123.333 437.02,74.981 Z M 256,57.263 c 100.782,0 184.276,75.409 197.04,172.765 L 329.849,218.03 C 316.036,191.275 288.129,172.928 256,172.928 c -32.129,0 -60.036,18.347 -73.849,45.102 L 58.96,230.028 C 71.724,132.672 155.218,57.263 256,57.263 Z M 58.889,281.375 180.62,290.859 c 7.69,16.55 20.669,30.166 36.76,38.655 l 7.978,122.859 C 138.513,438.875 70.099,368.943 58.889,281.375 Z M 256,281.809 c -14.232,0 -25.809,-11.578 -25.809,-25.809 0,-14.231 11.579,-25.809 25.809,-25.809 14.23,0 25.809,11.579 25.809,25.809 0,14.23 -11.577,25.809 -25.809,25.809 z m 30.644,170.564 7.978,-122.859 c 16.091,-8.488 29.069,-22.105 36.76,-38.655 l 121.731,-9.484 c -11.212,87.568 -79.626,157.5 -166.469,170.998 z" id="path2" style="fill:#ffffff"/></g></g></svg>